<?xml version="1.0" encoding="UTF-8"?><svg id="_레이어_1" xmlns="http://www.w3.org/2000/svg" xmlns:xlink="http://www.w3.org/1999/xlink" viewBox="0 0 155.97 50"><defs><style>.cls-1{fill:none;}.cls-2{clip-path:url(#clippath);}.cls-3{clip-path:url(#clippath-1);}</style><clipPath id="clippath"><rect class="cls-1" width="155.91" height="50"/></clipPath><clipPath id="clippath-1"><rect class="cls-1" x=".18" width="155.78" height="50"/></clipPath></defs><g class="cls-2"><g id="_마스크_그룹_1"><g id="_그룹_2"><g class="cls-3"><g id="_그룹_1"><path id="_패스_1" d="m78.08,37.03c-6.65,0-12.04-5.39-12.04-12.04s5.39-12.04,12.04-12.04c6.65,0,12.04,5.39,12.04,12.04,0,6.64-5.39,12.03-12.04,12.04m0-18.52c-3.58,0-6.48,2.9-6.48,6.48s2.9,6.48,6.48,6.48c3.58,0,6.48-2.9,6.48-6.48h0c0-3.58-2.9-6.48-6.48-6.48"/><path id="_패스_2" d="m78.08,50c-11.4,0-21.36-7.71-24.21-18.75l5.38-1.38c2.22,8.58,9.96,14.58,18.83,14.58v5.56Z"/><path id="_패스_3" d="m94.61,43.75l-3.68-4.16c2.92-2.57,5-5.95,5.97-9.72l5.38,1.38c-1.25,4.84-3.92,9.2-7.68,12.5"/><path id="_패스_4" d="m96.91,20.14c-2.21-8.59-9.96-14.59-18.83-14.58V0c11.4,0,21.36,7.71,24.21,18.75l-5.38,1.39Z"/><path id="_패스_5" d="m59.24,20.14l-5.38-1.38c1.25-4.84,3.92-9.2,7.68-12.5l3.68,4.17c-2.92,2.57-5,5.95-5.97,9.72"/><path id="_패스_6" d="m78.08,50c-11.4,0-21.36-7.71-24.21-18.75l5.38-1.38c2.22,8.58,9.96,14.58,18.83,14.58v5.56Z"/><path id="_패스_7" d="m94.61,43.75l-3.68-4.16c2.92-2.57,5-5.95,5.97-9.72l5.38,1.38c-1.25,4.84-3.92,9.2-7.68,12.5"/><path id="_패스_8" d="m96.91,20.14c-2.21-8.59-9.96-14.59-18.83-14.58V0c11.4,0,21.36,7.71,24.21,18.75l-5.38,1.39Z"/><path id="_패스_9" d="m59.24,20.14l-5.38-1.38c1.25-4.84,3.92-9.2,7.68-12.5l3.68,4.17c-2.92,2.57-5,5.95-5.97,9.72"/><path id="_패스_10" d="m27.94,25.2l-9.92-5.53-9.19,2.56H.18v-5.56h7.89l10.65-2.97,9.92,5.53,9.19-2.56h8.65v5.56h-7.89l-10.65,2.97Z"/><path id="_패스_11" d="m30.34,37.27c-.61,0-1.21-.05-1.81-.15-3.08-.55-5.79-2.35-7.5-4.98-.86-1.36-2.25-2.3-3.83-2.6-1.43-.23-2.9.13-4.05,1.02l-.84.62c-1.87,1.41-4.16,2.18-6.51,2.19H.18v-5.55h5.62c1.15,0,2.27-.39,3.19-1.09l.84-.62c2.37-1.79,5.37-2.53,8.3-2.03,3.08.55,5.79,2.35,7.5,4.98.86,1.36,2.25,2.3,3.83,2.6,1.43.23,2.9-.13,4.05-1.02l.84-.62c1.87-1.41,4.15-2.18,6.5-2.19h5.62v5.55h-5.62c-1.15,0-2.27.39-3.19,1.09l-.84.62c-1.87,1.41-4.15,2.18-6.49,2.19"/><rect id="_사각형_1" x=".18" y="5.56" width="46.29" height="5.55"/><rect id="_사각형_2" x=".18" y="38.88" width="46.29" height="5.55"/><path id="_패스_12" d="m134.21,44.43h-8.8v-16.66h-15.84l9.26-16.6h-9.16v-5.55h18.62l-9.26,16.6h11.94v16.66h.46l12.87-17.18h-6.85V5.62h18.52v5.55h-12.96v4.97h12.4l-21.2,28.29Z"/></g></g></g></g></g></svg>