<?xml version="1.0" encoding="UTF-8"?><svg id="_레이어_1" xmlns="http://www.w3.org/2000/svg" viewBox="0 0 620 300"><defs><style>.cls-1{fill:none;}</style></defs><rect class="cls-1" width="620" height="300"/><g><path d="m45.5,72.98l-13.69-23.6h-10.2v23.6h-13.4V5h27.19c6.28,0,11.62,2.2,16.02,6.6,4.4,4.4,6.6,9.71,6.6,15.93,0,4.21-1.2,8.11-3.59,11.7-2.4,3.59-5.57,6.3-9.52,8.11l15.05,25.64h-14.47ZM21.61,17.53v20.1h13.79c2.52,0,4.69-.99,6.51-2.96,1.81-1.97,2.72-4.35,2.72-7.14s-.91-5.15-2.72-7.09c-1.81-1.94-3.98-2.91-6.51-2.91h-13.79Z"/><path d="m71.53,53.85c1.68,6.09,6.25,9.13,13.69,9.13,4.79,0,8.42-1.62,10.88-4.86l10.1,5.83c-4.79,6.93-11.85,10.39-21.17,10.39-8.03,0-14.47-2.43-19.33-7.28-4.86-4.86-7.28-10.97-7.28-18.36s2.39-13.42,7.19-18.31c4.79-4.89,10.94-7.33,18.45-7.33,7.12,0,13,2.46,17.63,7.38,4.63,4.92,6.94,11.01,6.94,18.26,0,1.62-.16,3.34-.49,5.15h-36.61Zm-.19-9.71h24.76c-.71-3.3-2.18-5.76-4.42-7.38-2.23-1.62-4.77-2.43-7.62-2.43-3.37,0-6.15.86-8.35,2.57-2.2,1.72-3.66,4.13-4.37,7.23Z"/><path d="m150,24.42h12.53v48.56h-12.53v-5.73c-3.76,4.73-9.03,7.09-15.83,7.09s-12.03-2.48-16.66-7.43c-4.63-4.95-6.94-11.02-6.94-18.21s2.31-13.26,6.94-18.21c4.63-4.95,10.18-7.43,16.66-7.43,6.8,0,12.07,2.36,15.83,7.09v-5.73Zm-23.11,34.14c2.52,2.56,5.73,3.84,9.61,3.84s7.1-1.28,9.66-3.84,3.84-5.84,3.84-9.86-1.28-7.3-3.84-9.86c-2.56-2.56-5.78-3.84-9.66-3.84s-7.09,1.28-9.61,3.84c-2.53,2.56-3.79,5.84-3.79,9.86s1.26,7.3,3.79,9.86Z"/><path d="m206.81,5h12.53v67.98h-12.53v-5.73c-3.69,4.73-8.93,7.09-15.73,7.09s-12.12-2.48-16.75-7.43c-4.63-4.95-6.94-11.02-6.94-18.21s2.31-13.26,6.94-18.21c4.63-4.95,10.21-7.43,16.75-7.43s12.04,2.36,15.73,7.09V5Zm-23.07,53.56c2.56,2.56,5.78,3.84,9.66,3.84s7.09-1.28,9.62-3.84c2.52-2.56,3.79-5.84,3.79-9.86s-1.26-7.3-3.79-9.86c-2.53-2.56-5.73-3.84-9.62-3.84s-7.11,1.28-9.66,3.84c-2.56,2.56-3.84,5.84-3.84,9.86s1.28,7.3,3.84,9.86Z"/><path d="m258.57,24.42h13.4l-17.68,48.56c-2.53,6.99-5.88,12.06-10.05,15.2-4.18,3.14-9.37,4.55-15.59,4.23v-11.65c3.37.06,6.04-.65,8.01-2.14,1.97-1.49,3.54-3.89,4.71-7.19l-19.91-47.01h13.69l12.63,32.63,10.78-32.63Z"/><path d="m322.18,36.47h-10.97v20.2c0,1.68.42,2.91,1.26,3.69.84.78,2.07,1.21,3.69,1.31,1.62.1,3.63.08,6.02-.05v11.36c-8.61.97-14.68.16-18.21-2.43-3.53-2.59-5.29-7.22-5.29-13.89v-20.2h-8.45v-12.04h8.45v-9.81l12.53-3.79v13.6h10.97v12.04Z"/><path d="m367.05,66.91c-4.99,4.95-11.07,7.43-18.26,7.43s-13.26-2.48-18.21-7.43c-4.95-4.95-7.43-11.02-7.43-18.21s2.48-13.26,7.43-18.21c4.95-4.95,11.02-7.43,18.21-7.43s13.27,2.48,18.26,7.43c4.98,4.95,7.48,11.02,7.48,18.21s-2.49,13.26-7.48,18.21Zm-27.63-8.59c2.49,2.53,5.62,3.79,9.37,3.79s6.9-1.26,9.42-3.79c2.52-2.53,3.79-5.73,3.79-9.61s-1.26-7.09-3.79-9.61c-2.53-2.53-5.67-3.79-9.42-3.79s-6.88,1.26-9.37,3.79c-2.49,2.53-3.74,5.73-3.74,9.61s1.25,7.09,3.74,9.61Z"/><path d="m44.43,104.76h12.53v67.98h-12.53v-5.73c-3.69,4.73-8.93,7.09-15.73,7.09s-12.12-2.48-16.75-7.43c-4.63-4.95-6.94-11.02-6.94-18.21s2.31-13.26,6.94-18.21c4.63-4.95,10.21-7.43,16.75-7.43s12.04,2.36,15.73,7.09v-25.15Zm-23.07,53.56c2.56,2.56,5.78,3.84,9.66,3.84s7.09-1.28,9.62-3.84c2.52-2.56,3.79-5.84,3.79-9.86s-1.26-7.3-3.79-9.86c-2.53-2.56-5.73-3.84-9.62-3.84s-7.11,1.28-9.66,3.84c-2.56,2.56-3.84,5.84-3.84,9.86s1.28,7.3,3.84,9.86Z"/><path d="m75.12,153.61c1.68,6.09,6.25,9.13,13.69,9.13,4.79,0,8.42-1.62,10.88-4.86l10.1,5.83c-4.79,6.93-11.85,10.39-21.17,10.39-8.03,0-14.47-2.43-19.33-7.28-4.86-4.86-7.28-10.97-7.28-18.36s2.39-13.42,7.19-18.31c4.79-4.89,10.94-7.33,18.45-7.33,7.12,0,13,2.46,17.63,7.38,4.63,4.92,6.94,11.01,6.94,18.26,0,1.62-.16,3.34-.49,5.15h-36.61Zm-.19-9.71h24.76c-.71-3.3-2.18-5.76-4.42-7.38-2.23-1.62-4.77-2.43-7.62-2.43-3.37,0-6.15.86-8.35,2.57-2.2,1.72-3.66,4.13-4.37,7.23Z"/><path d="m117.07,172.74v-70.9h12.53v70.9h-12.53Z"/><path d="m143.39,118.35c-2.07,0-3.87-.76-5.39-2.28-1.52-1.52-2.28-3.32-2.28-5.39s.76-3.89,2.28-5.44c1.52-1.55,3.32-2.33,5.39-2.33s3.97.78,5.49,2.33,2.28,3.37,2.28,5.44-.76,3.87-2.28,5.39c-1.52,1.52-3.35,2.28-5.49,2.28Zm-6.22,54.39v-48.56h12.53v48.56h-12.53Z"/><path d="m189.23,124.18h13.79l-18.45,48.56h-14.28l-18.45-48.56h13.79l11.75,33.99,11.85-33.99Z"/><path d="m213.8,153.61c1.68,6.09,6.25,9.13,13.69,9.13,4.79,0,8.42-1.62,10.88-4.86l10.1,5.83c-4.79,6.93-11.85,10.39-21.17,10.39-8.03,0-14.47-2.43-19.33-7.28-4.86-4.86-7.28-10.97-7.28-18.36s2.39-13.42,7.19-18.31c4.79-4.89,10.94-7.33,18.45-7.33,7.12,0,13,2.46,17.63,7.38,4.63,4.92,6.94,11.01,6.94,18.26,0,1.62-.16,3.34-.49,5.15h-36.61Zm-.19-9.71h24.76c-.71-3.3-2.18-5.76-4.42-7.38-2.23-1.62-4.77-2.43-7.62-2.43-3.37,0-6.15.86-8.35,2.57-2.2,1.72-3.66,4.13-4.37,7.23Z"/><path d="m268.28,132.53c1.17-3.11,3.09-5.44,5.78-6.99,2.69-1.55,5.68-2.33,8.98-2.33v13.99c-3.82-.45-7.23.32-10.25,2.33-3.01,2.01-4.52,5.34-4.52,10v23.21h-12.53v-48.56h12.53v8.35Z"/><path d="m343.74,124.18h12.53v48.56h-12.53v-5.73c-3.76,4.73-9.03,7.09-15.83,7.09s-12.03-2.48-16.66-7.43c-4.63-4.95-6.94-11.02-6.94-18.21s2.31-13.26,6.94-18.21c4.63-4.95,10.18-7.43,16.66-7.43,6.8,0,12.07,2.36,15.83,7.09v-5.73Zm-23.11,34.14c2.52,2.56,5.73,3.84,9.61,3.84s7.1-1.28,9.66-3.84,3.84-5.84,3.84-9.86-1.28-7.3-3.84-9.86c-2.56-2.56-5.78-3.84-9.66-3.84s-7.09,1.28-9.61,3.84c-2.53,2.56-3.79,5.84-3.79,9.86s1.26,7.3,3.79,9.86Z"/><path d="m411.14,122.82c5.31,0,9.69,1.78,13.16,5.34,3.46,3.56,5.2,8.48,5.2,14.76v29.82h-12.53v-28.26c0-3.24-.87-5.71-2.62-7.43-1.75-1.71-4.08-2.57-6.99-2.57-3.24,0-5.83,1-7.77,3.01-1.94,2.01-2.91,5.02-2.91,9.03v26.22h-12.53v-48.56h12.53v5.44c3.04-4.53,7.87-6.8,14.47-6.8Z"/><path d="m446.88,153.61c1.68,6.09,6.25,9.13,13.69,9.13,4.79,0,8.42-1.62,10.88-4.86l10.1,5.83c-4.79,6.93-11.85,10.39-21.17,10.39-8.03,0-14.47-2.43-19.33-7.28-4.86-4.86-7.28-10.97-7.28-18.36s2.39-13.42,7.19-18.31c4.79-4.89,10.94-7.33,18.45-7.33,7.12,0,13,2.46,17.63,7.38,4.63,4.92,6.94,11.01,6.94,18.26,0,1.62-.16,3.34-.49,5.15h-36.61Zm-.19-9.71h24.76c-.71-3.3-2.18-5.76-4.42-7.38-2.23-1.62-4.77-2.43-7.62-2.43-3.37,0-6.15.86-8.35,2.57-2.2,1.72-3.66,4.13-4.37,7.23Z"/><path d="m541.57,124.18h13.3l-15.44,48.56h-11.95l-8.94-29.43-8.93,29.43h-11.95l-15.44-48.56h13.31l8.25,29.82,8.84-29.82h11.85l8.84,29.91,8.25-29.91Z"/><path d="m18.21,253.36c1.68,6.09,6.25,9.13,13.69,9.13,4.79,0,8.42-1.62,10.88-4.86l10.1,5.83c-4.79,6.93-11.85,10.39-21.17,10.39-8.03,0-14.47-2.43-19.33-7.28-4.86-4.86-7.28-10.97-7.28-18.35s2.39-13.42,7.19-18.31c4.79-4.89,10.94-7.33,18.45-7.33,7.12,0,13,2.46,17.63,7.38,4.63,4.92,6.94,11.01,6.94,18.26,0,1.62-.16,3.34-.49,5.15H18.21Zm-.19-9.71h24.76c-.71-3.3-2.18-5.76-4.42-7.38-2.23-1.62-4.77-2.43-7.62-2.43-3.37,0-6.15.86-8.35,2.57-2.2,1.72-3.66,4.13-4.37,7.23Z"/><path d="m102.22,272.5h-14.47l-10.49-14.76-10.59,14.76h-14.47l17.77-24.76-17-23.79h14.47l9.81,13.69,9.81-13.69h14.37l-17,23.7,17.77,24.86Z"/><path d="m132.81,222.58c6.54,0,12.12,2.48,16.75,7.43,4.63,4.95,6.94,11.02,6.94,18.21s-2.32,13.26-6.94,18.21c-4.63,4.95-10.21,7.43-16.75,7.43s-12.04-2.36-15.73-7.09v25.15h-12.53v-67.98h12.53v5.73c3.69-4.73,8.94-7.09,15.73-7.09Zm-11.95,35.5c2.53,2.56,5.73,3.84,9.62,3.84s7.1-1.28,9.66-3.84c2.56-2.56,3.84-5.84,3.84-9.86s-1.28-7.3-3.84-9.86c-2.56-2.56-5.78-3.84-9.66-3.84s-7.09,1.28-9.62,3.84c-2.52,2.56-3.79,5.84-3.79,9.86s1.26,7.3,3.79,9.86Z"/><path d="m172.04,253.36c1.68,6.09,6.25,9.13,13.69,9.13,4.79,0,8.42-1.62,10.88-4.86l10.1,5.83c-4.79,6.93-11.85,10.39-21.17,10.39-8.03,0-14.47-2.43-19.33-7.28-4.86-4.86-7.28-10.97-7.28-18.35s2.39-13.42,7.19-18.31c4.79-4.89,10.94-7.33,18.45-7.33,7.12,0,13,2.46,17.63,7.38,4.63,4.92,6.94,11.01,6.94,18.26,0,1.62-.16,3.34-.49,5.15h-36.61Zm-.19-9.71h24.76c-.71-3.3-2.18-5.76-4.42-7.38-2.23-1.62-4.77-2.43-7.62-2.43-3.37,0-6.15.86-8.35,2.57-2.2,1.72-3.66,4.13-4.37,7.23Z"/><path d="m226.52,232.29c1.17-3.11,3.09-5.44,5.78-6.99,2.69-1.55,5.68-2.33,8.98-2.33v13.99c-3.82-.45-7.23.32-10.25,2.33-3.01,2.01-4.52,5.34-4.52,10v23.21h-12.53v-48.56h12.53v8.35Z"/><path d="m250.9,218.11c-2.07,0-3.87-.76-5.39-2.28-1.52-1.52-2.28-3.32-2.28-5.39s.76-3.89,2.28-5.44c1.52-1.55,3.32-2.33,5.39-2.33s3.97.78,5.49,2.33,2.28,3.37,2.28,5.44-.76,3.87-2.28,5.39c-1.52,1.52-3.35,2.28-5.49,2.28Zm-6.22,54.39v-48.56h12.53v48.56h-12.53Z"/><path d="m275.37,253.36c1.68,6.09,6.25,9.13,13.69,9.13,4.79,0,8.42-1.62,10.88-4.86l10.1,5.83c-4.79,6.93-11.85,10.39-21.17,10.39-8.03,0-14.47-2.43-19.33-7.28-4.86-4.86-7.28-10.97-7.28-18.35s2.39-13.42,7.19-18.31c4.79-4.89,10.94-7.33,18.45-7.33,7.12,0,13,2.46,17.63,7.38,4.63,4.92,6.94,11.01,6.94,18.26,0,1.62-.16,3.34-.49,5.15h-36.61Zm-.19-9.71h24.76c-.71-3.3-2.18-5.76-4.42-7.38-2.23-1.62-4.77-2.43-7.62-2.43-3.37,0-6.15.86-8.35,2.57-2.2,1.72-3.66,4.13-4.37,7.23Z"/><path d="m344.33,222.58c5.31,0,9.69,1.78,13.16,5.34,3.46,3.56,5.2,8.48,5.2,14.76v29.82h-12.53v-28.26c0-3.24-.87-5.71-2.62-7.43-1.75-1.71-4.08-2.57-6.99-2.57-3.24,0-5.83,1-7.77,3.01-1.94,2.01-2.91,5.02-2.91,9.03v26.22h-12.53v-48.56h12.53v5.44c3.04-4.53,7.87-6.8,14.47-6.8Z"/><path d="m392.59,273.86c-7.32,0-13.42-2.46-18.31-7.38-4.89-4.92-7.33-11.01-7.33-18.26s2.44-13.34,7.33-18.26c4.89-4.92,10.99-7.38,18.31-7.38,4.73,0,9.03,1.13,12.92,3.4,3.89,2.27,6.83,5.31,8.84,9.13l-10.78,6.31c-.97-2.01-2.44-3.59-4.42-4.76-1.98-1.17-4.19-1.75-6.65-1.75-3.76,0-6.86,1.25-9.32,3.74-2.46,2.49-3.69,5.68-3.69,9.57s1.23,6.98,3.69,9.47c2.46,2.49,5.57,3.74,9.32,3.74,2.53,0,4.77-.57,6.75-1.7,1.97-1.13,3.45-2.7,4.42-4.71l10.88,6.22c-2.14,3.82-5.15,6.88-9.03,9.18s-8.19,3.45-12.92,3.45Z"/><path d="m427.07,253.36c1.68,6.09,6.25,9.13,13.69,9.13,4.79,0,8.42-1.62,10.88-4.86l10.1,5.83c-4.79,6.93-11.85,10.39-21.17,10.39-8.03,0-14.47-2.43-19.33-7.28-4.86-4.86-7.28-10.97-7.28-18.35s2.39-13.42,7.19-18.31c4.79-4.89,10.94-7.33,18.45-7.33,7.12,0,13,2.46,17.63,7.38,4.63,4.92,6.94,11.01,6.94,18.26,0,1.62-.16,3.34-.49,5.15h-36.61Zm-.19-9.71h24.76c-.71-3.3-2.18-5.76-4.42-7.38-2.23-1.62-4.77-2.43-7.62-2.43-3.37,0-6.15.86-8.35,2.57-2.2,1.72-3.66,4.13-4.37,7.23Z"/></g></svg>