<?xml version="1.0" encoding="UTF-8"?><svg id="_레이어_1" xmlns="http://www.w3.org/2000/svg" viewBox="0 0 2200 1080"><defs><style>.cls-1{opacity:0;}</style></defs><g class="cls-1"><path d="m2199,1v1078H1V1h2198m1-1H0v1080h2200V0h0Z"/></g><g><g><path d="m110.12,649.3h-43.63v25.87h42.39v20.57h-42.39v42.07h-21.5v-109.08h65.14v20.57Z"/><path d="m128.67,650.54c-3.33,0-6.21-1.22-8.65-3.66-2.44-2.44-3.66-5.32-3.66-8.65s1.22-6.23,3.66-8.73c2.44-2.49,5.32-3.74,8.65-3.74s6.36,1.25,8.8,3.74c2.44,2.49,3.66,5.4,3.66,8.73s-1.22,6.21-3.66,8.65c-2.44,2.44-5.38,3.66-8.8,3.66Zm-9.97,87.27v-77.92h20.1v77.92h-20.1Z"/><path d="m194.27,657.71c8.52,0,15.56,2.86,21.12,8.57,5.56,5.71,8.34,13.61,8.34,23.69v47.84h-20.1v-45.35c0-5.19-1.4-9.17-4.21-11.92-2.8-2.75-6.54-4.13-11.22-4.13-5.2,0-9.35,1.61-12.47,4.83-3.12,3.22-4.67,8.05-4.67,14.49v42.07h-20.1v-77.92h20.1v8.73c4.88-7.27,12.62-10.91,23.22-10.91Z"/><path d="m293.69,628.73h20.1v109.08h-20.1v-9.19c-5.92,7.58-14.34,11.38-25.25,11.38s-19.45-3.97-26.88-11.92c-7.43-7.95-11.14-17.69-11.14-29.22s3.71-21.27,11.14-29.22c7.43-7.95,16.39-11.92,26.88-11.92s19.32,3.79,25.25,11.38v-40.36Zm-37.01,85.94c4.1,4.11,9.27,6.16,15.51,6.16s11.38-2.05,15.43-6.16c4.05-4.1,6.08-9.37,6.08-15.82s-2.03-11.71-6.08-15.82c-4.05-4.1-9.19-6.16-15.43-6.16s-11.4,2.05-15.51,6.16c-4.11,4.11-6.16,9.38-6.16,15.82s2.05,11.71,6.16,15.82Z"/><path d="m417.89,659.89h20.1v77.92h-20.1v-9.19c-6.03,7.58-14.49,11.38-25.4,11.38s-19.3-3.97-26.73-11.92c-7.43-7.95-11.14-17.69-11.14-29.22s3.71-21.27,11.14-29.22c7.43-7.95,16.34-11.92,26.73-11.92,10.91,0,19.37,3.79,25.4,11.38v-9.19Zm-37.09,54.78c4.05,4.11,9.19,6.16,15.43,6.16s11.4-2.05,15.51-6.16c4.1-4.1,6.16-9.37,6.16-15.82s-2.05-11.71-6.16-15.82c-4.1-4.1-9.27-6.16-15.51-6.16s-11.38,2.05-15.43,6.16c-4.05,4.11-6.08,9.38-6.08,15.82s2.03,11.71,6.08,15.82Z"/><path d="m493.31,657.71c8.52,0,15.56,2.86,21.12,8.57,5.56,5.71,8.34,13.61,8.34,23.69v47.84h-20.1v-45.35c0-5.19-1.4-9.17-4.21-11.92-2.8-2.75-6.54-4.13-11.22-4.13-5.2,0-9.35,1.61-12.47,4.83-3.12,3.22-4.67,8.05-4.67,14.49v42.07h-20.1v-77.92h20.1v8.73c4.88-7.27,12.62-10.91,23.22-10.91Z"/><path d="m592.73,628.73h20.1v109.08h-20.1v-9.19c-5.92,7.58-14.34,11.38-25.25,11.38s-19.45-3.97-26.88-11.92c-7.43-7.95-11.14-17.69-11.14-29.22s3.71-21.27,11.14-29.22c7.43-7.95,16.39-11.92,26.88-11.92s19.32,3.79,25.25,11.38v-40.36Zm-37.01,85.94c4.1,4.11,9.27,6.16,15.51,6.16s11.38-2.05,15.43-6.16c4.05-4.1,6.08-9.37,6.08-15.82s-2.03-11.71-6.08-15.82c-4.05-4.1-9.19-6.16-15.43-6.16s-11.4,2.05-15.51,6.16c-4.11,4.11-6.16,9.38-6.16,15.82s2.05,11.71,6.16,15.82Z"/><path d="m716.77,628.73h20.1v109.08h-20.1v-9.19c-5.92,7.58-14.34,11.38-25.25,11.38s-19.45-3.97-26.88-11.92c-7.43-7.95-11.14-17.69-11.14-29.22s3.71-21.27,11.14-29.22c7.43-7.95,16.39-11.92,26.88-11.92s19.32,3.79,25.25,11.38v-40.36Zm-37.01,85.94c4.1,4.11,9.27,6.16,15.51,6.16s11.38-2.05,15.43-6.16c4.05-4.1,6.08-9.37,6.08-15.82s-2.03-11.71-6.08-15.82c-4.05-4.1-9.19-6.16-15.43-6.16s-11.4,2.05-15.51,6.16c-4.11,4.11-6.16,9.38-6.16,15.82s2.05,11.71,6.16,15.82Z"/><path d="m766.02,707.11c2.7,9.77,10.02,14.65,21.97,14.65,7.69,0,13.5-2.6,17.45-7.79l16.21,9.35c-7.69,11.12-19.01,16.67-33.97,16.67-12.88,0-23.22-3.9-31.01-11.69s-11.69-17.61-11.69-29.45,3.84-21.53,11.53-29.37c7.69-7.84,17.56-11.77,29.61-11.77,11.43,0,20.85,3.95,28.28,11.84,7.43,7.9,11.14,17.66,11.14,29.3,0,2.6-.26,5.35-.78,8.26h-58.75Zm-.31-15.58h39.74c-1.14-5.3-3.51-9.25-7.09-11.84-3.58-2.6-7.66-3.9-12.23-3.9-5.4,0-9.87,1.38-13.4,4.13-3.53,2.75-5.87,6.62-7.01,11.61Z"/><path d="m833.33,737.81v-113.76h20.1v113.76h-20.1Z"/><path d="m875.56,650.54c-3.33,0-6.21-1.22-8.65-3.66-2.44-2.44-3.66-5.32-3.66-8.65s1.22-6.23,3.66-8.73c2.44-2.49,5.32-3.74,8.65-3.74s6.36,1.25,8.8,3.74c2.44,2.49,3.66,5.4,3.66,8.73s-1.22,6.21-3.66,8.65c-2.44,2.44-5.38,3.66-8.8,3.66Zm-9.97,87.27v-77.92h20.1v77.92h-20.1Z"/><path d="m949.12,659.89h22.13l-29.61,77.92h-22.91l-29.61-77.92h22.13l18.86,54.54,19.01-54.54Z"/><path d="m988.54,707.11c2.7,9.77,10.02,14.65,21.97,14.65,7.69,0,13.5-2.6,17.45-7.79l16.21,9.35c-7.69,11.12-19.01,16.67-33.97,16.67-12.88,0-23.22-3.9-31.01-11.69s-11.69-17.61-11.69-29.45,3.84-21.53,11.53-29.37c7.69-7.84,17.56-11.77,29.61-11.77,11.43,0,20.85,3.95,28.28,11.84,7.43,7.9,11.14,17.66,11.14,29.3,0,2.6-.26,5.35-.78,8.26h-58.75Zm-.31-15.58h39.74c-1.14-5.3-3.51-9.25-7.09-11.84-3.58-2.6-7.66-3.9-12.23-3.9-5.4,0-9.87,1.38-13.4,4.13-3.53,2.75-5.87,6.62-7.01,11.61Z"/><path d="m1075.96,673.29c1.87-4.99,4.96-8.73,9.27-11.22,4.31-2.49,9.12-3.74,14.41-3.74v22.44c-6.13-.73-11.61.52-16.44,3.74-4.83,3.22-7.25,8.57-7.25,16.05v37.24h-20.1v-77.92h20.1v13.4Z"/><path d="m103.27,817.37h20.1v77.92h-20.1v-9.19c-6.03,7.58-14.49,11.38-25.4,11.38s-19.3-3.97-26.73-11.92c-7.43-7.95-11.14-17.69-11.14-29.22s3.71-21.27,11.14-29.22c7.43-7.95,16.34-11.92,26.73-11.92,10.91,0,19.37,3.79,25.4,11.38v-9.19Zm-37.09,54.78c4.05,4.1,9.19,6.16,15.43,6.16s11.4-2.05,15.51-6.16c4.1-4.1,6.16-9.37,6.16-15.82s-2.05-11.71-6.16-15.82c-4.1-4.1-9.27-6.16-15.51-6.16s-11.38,2.05-15.43,6.16c-4.05,4.1-6.08,9.38-6.08,15.82s2.03,11.71,6.08,15.82Z"/><path d="m211.41,815.18c8.52,0,15.56,2.86,21.12,8.57,5.56,5.71,8.34,13.61,8.34,23.69v47.84h-20.1v-45.35c0-5.19-1.4-9.17-4.21-11.92-2.8-2.75-6.54-4.13-11.22-4.13-5.2,0-9.35,1.61-12.47,4.83-3.12,3.22-4.67,8.05-4.67,14.49v42.07h-20.1v-77.92h20.1v8.73c4.88-7.27,12.62-10.91,23.22-10.91Z"/><path d="m268.76,864.58c2.7,9.77,10.02,14.65,21.97,14.65,7.69,0,13.5-2.6,17.45-7.79l16.21,9.35c-7.69,11.12-19.01,16.67-33.97,16.67-12.88,0-23.22-3.9-31.01-11.69-7.79-7.79-11.69-17.61-11.69-29.45s3.84-21.53,11.53-29.37c7.69-7.84,17.56-11.77,29.61-11.77,11.43,0,20.85,3.95,28.28,11.84,7.43,7.9,11.14,17.66,11.14,29.3,0,2.6-.26,5.35-.78,8.26h-58.75Zm-.31-15.58h39.74c-1.14-5.3-3.51-9.24-7.09-11.84-3.58-2.6-7.66-3.9-12.23-3.9-5.4,0-9.87,1.38-13.4,4.13-3.53,2.75-5.87,6.62-7.01,11.61Z"/><path d="m420.7,817.37h21.35l-24.78,77.92h-19.17l-14.34-47.22-14.34,47.22h-19.17l-24.78-77.92h21.35l13.25,47.84,14.18-47.84h19.01l14.18,48,13.25-48Z"/><path d="m479.44,895.28v-113.76h20.1v113.76h-20.1Z"/><path d="m528.69,864.58c2.7,9.77,10.02,14.65,21.97,14.65,7.69,0,13.5-2.6,17.45-7.79l16.21,9.35c-7.69,11.12-19.01,16.67-33.97,16.67-12.88,0-23.22-3.9-31.01-11.69s-11.69-17.61-11.69-29.45,3.84-21.53,11.53-29.37c7.69-7.84,17.56-11.77,29.61-11.77,11.43,0,20.85,3.95,28.28,11.84,7.43,7.9,11.14,17.66,11.14,29.3,0,2.6-.26,5.35-.78,8.26h-58.75Zm-.31-15.58h39.74c-1.14-5.3-3.51-9.24-7.09-11.84-3.58-2.6-7.66-3.9-12.23-3.9-5.4,0-9.87,1.38-13.4,4.13-3.53,2.75-5.87,6.62-7.01,11.61Z"/><path d="m644.16,817.37h22.13l-29.61,77.92h-22.91l-29.61-77.92h22.13l18.86,54.54,19.01-54.54Z"/><path d="m683.59,864.58c2.7,9.77,10.02,14.65,21.97,14.65,7.69,0,13.5-2.6,17.45-7.79l16.21,9.35c-7.69,11.12-19.01,16.67-33.97,16.67-12.88,0-23.22-3.9-31.01-11.69-7.79-7.79-11.69-17.61-11.69-29.45s3.84-21.53,11.53-29.37c7.69-7.84,17.56-11.77,29.61-11.77,11.43,0,20.85,3.95,28.28,11.84,7.43,7.9,11.14,17.66,11.14,29.3,0,2.6-.26,5.35-.78,8.26h-58.75Zm-.31-15.58h39.74c-1.14-5.3-3.51-9.24-7.09-11.84-3.58-2.6-7.66-3.9-12.23-3.9-5.4,0-9.87,1.38-13.4,4.13-3.53,2.75-5.87,6.62-7.01,11.61Z"/><path d="m750.9,895.28v-113.76h20.1v113.76h-20.1Z"/><path d="m882.27,885.54c-8,7.95-17.76,11.92-29.3,11.92s-21.27-3.97-29.22-11.92c-7.95-7.95-11.92-17.69-11.92-29.22s3.97-21.27,11.92-29.22c7.95-7.95,17.69-11.92,29.22-11.92s21.3,3.97,29.3,11.92c8,7.95,12,17.69,12,29.22s-4,21.27-12,29.22Zm-44.33-13.79c4,4.05,9.01,6.08,15.04,6.08s11.06-2.03,15.12-6.08c4.05-4.05,6.08-9.19,6.08-15.43s-2.03-11.38-6.08-15.43c-4.05-4.05-9.09-6.08-15.12-6.08s-11.04,2.03-15.04,6.08c-4,4.05-6,9.19-6,15.43s2,11.38,6,15.43Z"/><path d="m941.64,803.34c-11.01-.83-16.52,3.58-16.52,13.25v.78h16.52v19.32h-16.52v58.59h-20.1v-58.59h-11.22v-19.32h11.22v-.78c0-11.01,3.06-19.37,9.19-25.09,6.13-5.71,15.27-8.21,27.43-7.48v19.32Z"/><path d="m994.31,864.58c2.7,9.77,10.02,14.65,21.97,14.65,7.69,0,13.5-2.6,17.45-7.79l16.21,9.35c-7.69,11.12-19.01,16.67-33.97,16.67-12.88,0-23.22-3.9-31.01-11.69s-11.69-17.61-11.69-29.45,3.84-21.53,11.53-29.37c7.69-7.84,17.56-11.77,29.61-11.77,11.43,0,20.85,3.95,28.28,11.84,7.43,7.9,11.14,17.66,11.14,29.3,0,2.6-.26,5.35-.78,8.26h-58.75Zm-.31-15.58h39.74c-1.14-5.3-3.51-9.24-7.09-11.84-3.58-2.6-7.66-3.9-12.23-3.9-5.4,0-9.87,1.38-13.4,4.13-3.53,2.75-5.87,6.62-7.01,11.61Z"/><path d="m1129.11,895.28h-23.22l-16.83-23.69-16.99,23.69h-23.22l28.52-39.74-27.27-38.18h23.22l15.74,21.97,15.74-21.97h23.06l-27.27,38.02,28.52,39.89Z"/><path d="m1178.19,815.18c10.49,0,19.45,3.97,26.88,11.92,7.43,7.95,11.14,17.69,11.14,29.22s-3.72,21.27-11.14,29.22c-7.43,7.95-16.39,11.92-26.88,11.92s-19.32-3.79-25.24-11.38v40.36h-20.1v-109.08h20.1v9.19c5.92-7.58,14.34-11.38,25.24-11.38Zm-19.17,56.96c4.05,4.1,9.19,6.16,15.43,6.16s11.4-2.05,15.51-6.16c4.1-4.1,6.15-9.37,6.15-15.82s-2.05-11.71-6.15-15.82c-4.11-4.1-9.27-6.16-15.51-6.16s-11.38,2.05-15.43,6.16c-4.05,4.1-6.08,9.38-6.08,15.82s2.03,11.71,6.08,15.82Z"/><path d="m1241.15,864.58c2.7,9.77,10.02,14.65,21.97,14.65,7.69,0,13.5-2.6,17.45-7.79l16.21,9.35c-7.69,11.12-19.01,16.67-33.97,16.67-12.88,0-23.22-3.9-31.01-11.69-7.79-7.79-11.69-17.61-11.69-29.45s3.84-21.53,11.53-29.37c7.69-7.84,17.56-11.77,29.61-11.77,11.43,0,20.86,3.95,28.28,11.84,7.43,7.9,11.14,17.66,11.14,29.3,0,2.6-.26,5.35-.78,8.26h-58.75Zm-.31-15.58h39.74c-1.14-5.3-3.51-9.24-7.09-11.84-3.58-2.6-7.66-3.9-12.23-3.9-5.4,0-9.87,1.38-13.4,4.13-3.53,2.75-5.87,6.62-7.01,11.61Z"/><path d="m1328.57,830.77c1.87-4.99,4.96-8.73,9.27-11.22,4.31-2.49,9.12-3.74,14.41-3.74v22.44c-6.13-.73-11.61.52-16.44,3.74-4.83,3.22-7.25,8.57-7.25,16.05v37.24h-20.1v-77.92h20.1v13.4Z"/><path d="m1367.68,808.02c-3.33,0-6.21-1.22-8.65-3.66-2.44-2.44-3.66-5.32-3.66-8.65s1.22-6.23,3.66-8.73c2.44-2.49,5.32-3.74,8.65-3.74s6.36,1.25,8.8,3.74c2.44,2.49,3.66,5.4,3.66,8.73s-1.22,6.21-3.66,8.65c-2.44,2.44-5.38,3.66-8.8,3.66Zm-9.97,87.27v-77.92h20.1v77.92h-20.1Z"/><path d="m1406.95,864.58c2.7,9.77,10.02,14.65,21.97,14.65,7.69,0,13.5-2.6,17.45-7.79l16.21,9.35c-7.69,11.12-19.01,16.67-33.97,16.67-12.88,0-23.22-3.9-31.01-11.69-7.79-7.79-11.69-17.61-11.69-29.45s3.84-21.53,11.53-29.37c7.69-7.84,17.56-11.77,29.61-11.77,11.43,0,20.86,3.95,28.28,11.84,7.43,7.9,11.14,17.66,11.14,29.3,0,2.6-.26,5.35-.78,8.26h-58.75Zm-.31-15.58h39.74c-1.14-5.3-3.51-9.24-7.09-11.84-3.58-2.6-7.66-3.9-12.23-3.9-5.4,0-9.87,1.38-13.4,4.13-3.53,2.75-5.87,6.62-7.01,11.61Z"/><path d="m1517.59,815.18c8.52,0,15.56,2.86,21.12,8.57,5.56,5.71,8.34,13.61,8.34,23.69v47.84h-20.1v-45.35c0-5.19-1.4-9.17-4.21-11.92-2.8-2.75-6.54-4.13-11.22-4.13-5.2,0-9.35,1.61-12.47,4.83-3.12,3.22-4.68,8.05-4.68,14.49v42.07h-20.1v-77.92h20.1v8.73c4.88-7.27,12.62-10.91,23.22-10.91Z"/><path d="m1595.04,897.46c-11.74,0-21.53-3.95-29.37-11.84-7.85-7.89-11.77-17.66-11.77-29.3s3.92-21.4,11.77-29.3c7.84-7.89,17.63-11.84,29.37-11.84,7.58,0,14.49,1.82,20.73,5.45,6.23,3.64,10.96,8.52,14.18,14.65l-17.3,10.13c-1.56-3.22-3.92-5.77-7.09-7.64-3.17-1.87-6.73-2.8-10.67-2.8-6.03,0-11.01,2-14.96,6-3.95,4-5.92,9.12-5.92,15.35s1.97,11.2,5.92,15.19c3.95,4,8.93,6,14.96,6,4.05,0,7.66-.91,10.83-2.73,3.17-1.82,5.53-4.34,7.09-7.56l17.45,9.97c-3.43,6.13-8.26,11.04-14.49,14.73-6.23,3.69-13.14,5.53-20.73,5.53Z"/><path d="m1650.36,864.58c2.7,9.77,10.02,14.65,21.97,14.65,7.69,0,13.5-2.6,17.45-7.79l16.21,9.35c-7.69,11.12-19.01,16.67-33.97,16.67-12.88,0-23.22-3.9-31.01-11.69s-11.69-17.61-11.69-29.45,3.84-21.53,11.53-29.37c7.69-7.84,17.56-11.77,29.61-11.77,11.43,0,20.86,3.95,28.28,11.84,7.43,7.9,11.14,17.66,11.14,29.3,0,2.6-.26,5.35-.78,8.26h-58.75Zm-.31-15.58h39.74c-1.14-5.3-3.51-9.24-7.09-11.84-3.58-2.6-7.66-3.9-12.23-3.9-5.4,0-9.87,1.38-13.4,4.13-3.53,2.75-5.87,6.62-7.01,11.61Z"/></g><g><path d="m50.92,1007.13v-1.87h-9.05v-4.92h24.41v4.92h-9.05v1.87c0,7.68,3.54,15.7,10.92,18.9l-3.64,4.82c-5.07-2.36-8.46-6.94-10.38-12.5-1.87,5.95-5.36,10.92-10.48,13.48l-3.64-4.92c7.38-3.35,10.92-11.66,10.92-19.78Zm26.77,32.87h-6.2v-23.62h-7.77v-4.92h7.77v-15.35h6.2v43.89Z"/><path d="m81.24,1017.56h39.96v4.82h-39.96v-4.82Zm4.63,8.37h6.1v8.07h25.1v4.92h-31.2v-12.99Zm30.9-12.99h-30.51v-15.25h6.1v10.43h24.41v4.82Z"/><path d="m153.58,1024.94l-3.54,4.82c-3.79-2.12-6.25-5.66-7.73-9.99-1.53,4.87-4.18,8.91-8.12,11.27l-3.84-4.43c6.54-3.94,9.05-11.76,9.05-19.19v-7.48h6v7.09c-.05,7.48,2.02,14.61,8.17,17.91Zm.1-28.15h5.71v16.44h3.84v-17.12h5.81v43.8h-5.81v-21.75h-3.84v19.68h-5.71v-41.04Z"/><path d="m211.74,1034.98h-40.06v-5.02h16.93v-6.59h-12.3v-14.66h24.7v-4.82h-24.8v-4.92h30.9v14.57h-24.7v4.92h25.69v4.92h-13.48v6.59h17.12v5.02Z"/><path d="m252.19,1022.29h-16.53v7.68h-6.2v-7.68h-17.22v-4.82h39.96v4.82Zm-19.98-25.29c9.45.05,15.75,3.54,15.75,9.05s-6.3,9.05-15.75,9.05-15.89-3.44-15.85-9.05c-.05-5.51,6.3-9.01,15.85-9.05Zm-15.25,29.03h6.2v8.17h24.6v4.92h-30.8v-13.09Zm15.25-15.85c5.61,0,9.2-1.43,9.25-4.13-.05-2.76-3.64-4.23-9.25-4.23s-9.3,1.48-9.25,4.23c-.05,2.71,3.59,4.13,9.25,4.13Z"/><path d="m288.12,1026.42l-3.35,4.63c-4.67-2.12-7.97-6.25-9.79-11.12-1.92,5.22-5.31,9.64-10.28,11.81l-3.35-4.72c7.14-3.15,10.53-10.58,10.53-17.12v-1.67h-9.05v-4.92h9.05v-6.2h6.1v6.2h8.96v4.92h-8.96v1.67c-.05,6.2,3.2,13.24,10.14,16.53Zm2.36-30.31h6.2v17.03h6.4v5.12h-6.4v21.65h-6.2v-43.8Z"/><path d="m330.63,1014.22l.3,4.43c-3.44.59-6.99.98-10.53,1.23v8.32h-6.2v6h26.57v4.92h-32.67v-13.09h6.1v-5.76c-3.89.15-7.63.15-10.92.15l-.79-4.82c8.07-.1,18.9-.15,28.15-1.38Zm-13.88-16.53c6.4,0,10.92,3.2,10.92,7.87s-4.53,7.68-10.92,7.68-10.97-3-11.02-7.68c.05-4.67,4.53-7.87,11.02-7.87Zm0,11.12c2.95,0,5.07-1.13,5.12-3.25-.05-2.21-2.16-3.4-5.12-3.35-3.1-.05-5.22,1.13-5.22,3.35s2.12,3.25,5.22,3.25Zm23.03,20.47h-6.2v-3.54h-8.37v-4.13h8.37v-25.39h6.2v33.07Z"/><path d="m371.38,1024.65l.49,4.43c-9.69,1.92-20.08,1.97-27.75,1.97l-.69-4.92c7.82-.05,18.65-.15,27.95-1.48Zm-1.87-14.86c0,6.3-5.17,10.78-12.11,10.73-6.89.05-12.15-4.43-12.11-10.73-.05-6.25,5.22-10.73,12.11-10.73s12.11,4.48,12.11,10.73Zm-12.11,5.51c3.49-.05,6.15-2.02,6.2-5.51-.05-3.4-2.71-5.41-6.2-5.41s-6.05,2.02-6,5.41c-.05,3.49,2.56,5.46,6,5.51Zm16.53-19.19h6.1v43.89h-6.1v-43.89Z"/><path d="m430.04,1021.4h-6.1v-4.33h-9.84v-4.82h9.84v-4.23h-9.4c-2.71,6.94-8.96,11.71-18.55,14.27l-2.46-4.72c10.04-2.71,15.01-7.53,15.89-13.48h-13.53v-4.92h20.18c0,1.43-.1,2.76-.3,4.04h8.17v-6.99h6.1v25.19Zm-14.57.49c8.86.05,14.86,3.44,14.86,8.86s-6,8.96-14.86,8.96-15.01-3.44-14.96-8.96c-.05-5.41,5.95-8.81,14.96-8.86Zm0,12.99c5.41-.05,8.71-1.43,8.76-4.13-.05-2.66-3.35-4.08-8.76-4.04-5.56-.05-8.86,1.38-8.86,4.04s3.3,4.08,8.86,4.13Z"/><path d="m433.78,999.94h9.94v-4.13h6v4.13h9.84v4.92h-25.79v-4.92Zm12.89,6.4c6.2-.05,10.53,3.25,10.53,7.77,0,4.77-4.33,7.92-10.53,7.97-6.05-.05-10.48-3.2-10.43-7.97-.05-4.53,4.38-7.82,10.43-7.77Zm-5.51,18.11h29.43v14.96h-29.43v-14.96Zm5.51-6.89c2.8-.05,4.67-1.23,4.63-3.44.05-2.07-1.82-3.2-4.63-3.25-2.8.05-4.63,1.18-4.63,3.25,0,2.21,1.82,3.4,4.63,3.44Zm17.91,16.93v-5.22h-17.32v5.22h17.32Zm6-11.91h-6.1v-8.56h-5.71v-5.02h5.71v-12.89h6.1v26.47Z"/><path d="m474.23,1013.82h39.96v4.82h-39.96v-4.82Zm35.82-9.55c0,4.82-5.81,7.48-15.85,7.48s-15.99-2.66-15.94-7.48c-.05-4.87,5.81-7.48,15.94-7.48s15.85,2.61,15.85,7.48Zm-31.2,23.82h24.41v-2.36h-24.41v-4.53h30.41v11.12h-24.41v2.66h25.59v4.63h-31.59v-11.51Zm15.35-20.86c6.45,0,9.55-.84,9.55-2.95,0-1.97-3.1-3-9.55-3.05-6.45.05-9.55,1.08-9.55,3.05,0,2.12,3.1,2.95,9.55,2.95Z"/><path d="m549.03,1005.26h-8.76c.1,4.33,3.25,8.71,10.24,10.43l-2.76,4.72c-5.02-1.28-8.51-3.99-10.48-7.48-1.97,3.84-5.46,6.89-10.58,8.27l-2.85-4.82c6.94-1.77,10.24-6.4,10.33-11.12h-8.86v-4.82h8.86v-4.43h6.2v4.43h8.66v4.82Zm-7.97,22.54h-11.12v-4.82h29.43v4.82h-11.12c1.13,3.25,5.46,6.35,13.09,7.28l-2.26,4.72c-6.99-.94-11.91-3.74-14.42-7.48-2.56,3.74-7.43,6.45-14.42,7.38l-2.16-4.63c7.63-.98,11.91-3.99,12.99-7.28Zm11.61-31.69h6.2v9.84h5.91v5.12h-5.91v10.04h-6.2v-25Z"/><path d="m588,1014.81c-.05,9.6-4.87,15.65-11.51,15.65s-11.56-6.05-11.51-15.65c-.05-9.55,4.77-15.55,11.51-15.55s11.47,6,11.51,15.55Zm-11.51,10.04c3.4,0,5.61-3.49,5.61-10.04s-2.21-10.04-5.61-10.04-5.66,3.54-5.61,10.04c-.05,6.54,2.26,10.04,5.61,10.04Zm16.53-28.74h6.2v16.53h6.4v5.12h-6.4v22.14h-6.2v-43.8Z"/><path d="m641.05,1025.14l-3.74,4.92c-4.63-2.31-7.82-6.59-9.64-11.86-1.92,5.66-5.27,10.28-10.24,12.75l-3.74-5.02c7.38-3.4,10.83-11.76,10.83-19.88v-6.5h6.2v6.5c-.05,7.87,3.3,15.75,10.33,19.09Zm1.87-29.03h6.2v16.93h6.4v5.12h-6.4v21.75h-6.2v-43.8Z"/><path d="m656.7,1007.03h14.07v-3.84h-14.07v-4.82h20.08v13.29h-13.88v3.94c7.18-.05,12.06-.3,17.62-1.28l.69,4.82c-6.3,1.23-11.91,1.43-20.77,1.48h-3.74v-13.58Zm4.53,16.93h28.64v15.45h-28.64v-15.45Zm22.64,10.53v-5.71h-16.63v5.71h16.63Zm6-27.95h5.9v5.12h-5.9v10.53h-6.2v-25.98h6.2v10.33Z"/><path d="m735.63,1018.05h-39.96v-4.82h39.96v4.82Zm-35.33,9.65h24.41v-2.46h-24.41v-4.63h30.41v11.42h-24.41v2.76h25.59v4.72h-31.59v-11.81Zm.39-30.61h29.92v4.82h-23.82v4.04h24.11v4.82h-30.21v-13.68Z"/><path d="m746.16,999.26c5.22,0,8.86,4.92,9.55,13.09h3.54v-15.55h5.81v41.04h-5.81v-20.57h-3.54c-.54,8.56-4.18,13.73-9.55,13.68-5.81.05-9.55-6-9.55-15.85s3.74-15.85,9.55-15.85Zm0,25.88c2.51,0,3.99-3.3,3.94-10.04.05-6.69-1.43-10.04-3.94-10.04s-3.94,3.35-3.94,10.04,1.48,10.04,3.94,10.04Zm27.95,14.76h-5.81v-43.8h5.81v43.8Z"/><path d="m789.81,1006.24h-11.17v-4.92h17.22c0,4.18-.44,8.12-1.48,11.71h5.22v-15.85h5.81v40.74h-5.81v-20.08h-7.09c-2.51,5.02-6.54,9.35-12.79,12.89l-3.44-4.23c8.86-5.27,12.7-11.66,13.53-20.27Zm24.85,33.66h-5.71v-43.8h5.71v43.8Z"/><path d="m834.64,1007.92v-2.36h-7.18v-4.92h19.68v4.92h-6.59v2.36c-.05,7.23,2.26,14.57,8.66,18.21l-3.64,4.53c-3.94-2.31-6.45-6.2-7.92-10.87-1.53,5.07-4.13,9.4-8.12,11.86l-3.74-4.53c6.45-3.94,8.86-11.81,8.86-19.19Zm9.45,3.25h5.71v-14.27h5.71v40.94h-5.71v-21.75h-5.71v-4.92Zm20.37,28.74h-5.81v-43.8h5.81v43.8Z"/><path d="m867.32,1015.69h14.86v-7.68h6.1v7.68h18.8v4.92h-39.76v-4.92Zm35.23,15.94c-.05,5.22-6.05,8.27-15.65,8.27s-15.55-3.05-15.55-8.27,6.1-8.22,15.55-8.27c9.6.05,15.6,3.05,15.65,8.27Zm-30.71-33.46h30.51v3.54c0,3.44,0,7.18-1.28,11.71l-6-.59c.98-3.99,1.13-6.94,1.08-9.94h-24.31v-4.72Zm15.06,37.1c6.05-.05,9.55-1.23,9.55-3.64s-3.49-3.69-9.55-3.64c-6-.05-9.45,1.23-9.45,3.64s3.44,3.59,9.45,3.64Z"/><path d="m907.57,1002.7h9.84v-5.9h6.2v5.9h9.64v4.92h-25.69v-4.92Zm12.99,7.38c6.35-.05,11.12,4.28,11.12,10.43s-4.77,10.38-11.12,10.33c-6.5.05-11.27-4.28-11.22-10.33-.05-6.15,4.72-10.48,11.22-10.43Zm0,15.75c3,.05,5.22-1.97,5.22-5.31s-2.21-5.46-5.22-5.51c-3.15.05-5.36,2.12-5.31,5.51-.05,3.35,2.16,5.36,5.31,5.31Zm21.75-12.5h6.4v5.02h-6.4v21.55h-6.1v-43.8h6.1v17.22Z"/><path d="m948.32,1017.56h39.96v4.82h-39.96v-4.82Zm4.63,8.37h6.1v8.07h25.1v4.92h-31.2v-12.99Zm30.9-12.99h-30.51v-15.25h6.1v10.43h24.41v4.82Z"/><path d="m1020.56,1003.59h-14.47v3.44h13.58v4.82h-13.58v3.54c7.09-.05,11.66-.2,16.83-1.18l.69,4.82c-5.95,1.03-11.22,1.18-20.08,1.18h-3.64v-21.55h20.67v4.92Zm-16.24,20.08h28.64v15.75h-28.64v-15.75Zm22.54,10.83v-6.1h-16.44v6.1h16.44Zm-.1-38.38h6.2v10.24h5.9v5.12h-5.9v10.24h-6.2v-25.59Z"/><path d="m1038.87,999.94h9.94v-4.13h6v4.13h9.84v4.92h-25.79v-4.92Zm12.89,6.4c6.2-.05,10.53,3.25,10.53,7.77,0,4.77-4.33,7.92-10.53,7.97-6.05-.05-10.48-3.2-10.43-7.97-.05-4.53,4.38-7.82,10.43-7.77Zm-5.51,18.11h29.43v14.96h-29.43v-14.96Zm5.51-6.89c2.8-.05,4.67-1.23,4.63-3.44.05-2.07-1.82-3.2-4.63-3.25-2.8.05-4.63,1.18-4.63,3.25,0,2.21,1.82,3.4,4.63,3.44Zm17.91,16.93v-5.22h-17.32v5.22h17.32Zm6-11.91h-6.1v-8.56h-5.71v-5.02h5.71v-12.89h6.1v26.47Z"/><path d="m1095.9,1005.65h-14.52v-5.02h20.77c-.05,13.09-5.12,24.41-19.78,31.59l-3.54-4.63c10.38-5.22,15.89-12.2,17.08-21.95Zm17.96,7.28h6.2v5.02h-6.2v21.85h-6.2v-43.7h6.2v16.83Z"/><path d="m1141.91,997.98c6.79,0,11.91,4.23,11.91,10.33s-5.12,10.28-11.91,10.33c-6.89-.05-12.01-4.33-12.01-10.33s5.12-10.33,12.01-10.33Zm0,15.55c3.4.05,5.86-1.92,5.81-5.22.05-3.25-2.41-5.22-5.81-5.22s-6.05,1.97-6,5.22c-.05,3.3,2.46,5.27,6,5.22Zm-5.31,8.07h6v4.04h17.12v-4.04h6.1v17.81h-29.23v-17.81Zm23.13,12.89v-4.03h-17.12v4.03h17.12Zm6.1-14.86h-6.1v-23.52h6.1v23.52Z"/><path d="m1172.13,1000.34h6.1v23.52c5.9-.1,12.25-.64,18.7-1.87l.69,5.02c-7.63,1.62-14.86,2.12-21.65,2.07h-3.84v-28.74Zm34.45,39.56h-6.1v-43.8h6.1v43.8Z"/><path d="m1212.09,1000.24h20.47v4.92h-14.37v19.19c6.35-.1,11.56-.39,17.32-1.38l.69,5.12c-6.74,1.13-12.7,1.33-20.47,1.28h-3.64v-29.13Zm32.77,12.2h6.4v4.92h-6.4v22.64h-6.2v-43.89h6.2v16.34Z"/><path d="m1252.54,1031.83c-.1-2.16,1.77-3.99,4.04-3.94,2.12-.05,3.99,1.77,4.04,3.94-.05,2.26-1.92,4.08-4.04,4.04-2.26.05-4.13-1.77-4.04-4.04Z"/></g></g></svg>