<?xml version="1.0" encoding="UTF-8"?><svg id="_레이어_1" xmlns="http://www.w3.org/2000/svg" viewBox="0 0 1080 1080"><defs><style>.cls-1{opacity:0;}</style></defs><g class="cls-1"><path d="m1079,1v1078H1V1h1078m1-1H0v1080h1080V0h0Z"/></g><g><g><path d="m108.25,252.36h-41.7v24.72h40.51v19.66h-40.51v40.21h-20.55v-104.24h62.25v19.66Z"/><path d="m125.97,253.55c-3.18,0-5.93-1.17-8.26-3.5-2.33-2.33-3.5-5.09-3.5-8.26s1.17-5.96,3.5-8.34c2.33-2.38,5.09-3.57,8.26-3.57s6.08,1.19,8.41,3.57c2.33,2.38,3.5,5.16,3.5,8.34s-1.17,5.93-3.5,8.26c-2.33,2.33-5.14,3.5-8.41,3.5Zm-9.53,83.39v-74.46h19.21v74.46h-19.21Z"/><path d="m188.66,260.4c8.14,0,14.87,2.73,20.18,8.19,5.31,5.46,7.97,13.01,7.97,22.63v45.72h-19.21v-43.33c0-4.96-1.34-8.76-4.02-11.39-2.68-2.63-6.25-3.95-10.72-3.95-4.97,0-8.93,1.54-11.91,4.62-2.98,3.08-4.47,7.69-4.47,13.85v40.21h-19.21v-74.46h19.21v8.34c4.67-6.95,12.06-10.42,22.19-10.42Z"/><path d="m283.67,232.71h19.21v104.24h-19.21v-8.79c-5.66,7.25-13.7,10.87-24.12,10.87s-18.59-3.8-25.69-11.39c-7.1-7.59-10.65-16.9-10.65-27.92s3.55-20.33,10.65-27.92c7.1-7.59,15.66-11.39,25.69-11.39s18.47,3.63,24.12,10.87v-38.57Zm-35.37,82.13c3.92,3.92,8.86,5.88,14.82,5.88s10.87-1.96,14.74-5.88c3.87-3.92,5.81-8.96,5.81-15.11s-1.94-11.19-5.81-15.11c-3.87-3.92-8.79-5.88-14.74-5.88s-10.9,1.96-14.82,5.88c-3.92,3.92-5.88,8.96-5.88,15.11s1.96,11.19,5.88,15.11Z"/><path d="m402.35,262.49h19.21v74.46h-19.21v-8.79c-5.76,7.25-13.85,10.87-24.27,10.87s-18.44-3.8-25.54-11.39c-7.1-7.59-10.65-16.9-10.65-27.92s3.55-20.33,10.65-27.92c7.1-7.59,15.61-11.39,25.54-11.39,10.42,0,18.51,3.63,24.27,10.87v-8.79Zm-35.44,52.34c3.87,3.92,8.79,5.88,14.74,5.88s10.89-1.96,14.82-5.88c3.92-3.92,5.88-8.96,5.88-15.11s-1.96-11.19-5.88-15.11c-3.92-3.92-8.86-5.88-14.82-5.88s-10.87,1.96-14.74,5.88c-3.87,3.92-5.81,8.96-5.81,15.11s1.94,11.19,5.81,15.11Z"/><path d="m474.42,260.4c8.14,0,14.87,2.73,20.18,8.19,5.31,5.46,7.97,13.01,7.97,22.63v45.72h-19.21v-43.33c0-4.96-1.34-8.76-4.02-11.39-2.68-2.63-6.25-3.95-10.72-3.95-4.97,0-8.93,1.54-11.91,4.62-2.98,3.08-4.47,7.69-4.47,13.85v40.21h-19.21v-74.46h19.21v8.34c4.67-6.95,12.06-10.42,22.19-10.42Z"/><path d="m569.43,232.71h19.21v104.24h-19.21v-8.79c-5.66,7.25-13.7,10.87-24.12,10.87s-18.59-3.8-25.69-11.39c-7.1-7.59-10.65-16.9-10.65-27.92s3.55-20.33,10.65-27.92c7.1-7.59,15.66-11.39,25.69-11.39s18.47,3.63,24.12,10.87v-38.57Zm-35.37,82.13c3.92,3.92,8.86,5.88,14.82,5.88s10.87-1.96,14.74-5.88c3.87-3.92,5.81-8.96,5.81-15.11s-1.94-11.19-5.81-15.11c-3.87-3.92-8.79-5.88-14.74-5.88s-10.9,1.96-14.82,5.88c-3.92,3.92-5.88,8.96-5.88,15.11s1.96,11.19,5.88,15.11Z"/><path d="m101.55,383.75h19.21v104.24h-19.21v-8.79c-5.66,7.25-13.7,10.87-24.12,10.87s-18.59-3.8-25.69-11.39c-7.1-7.6-10.65-16.9-10.65-27.92s3.55-20.33,10.65-27.92c7.1-7.59,15.66-11.39,25.69-11.39s18.47,3.63,24.12,10.87v-38.57Zm-35.37,82.13c3.92,3.92,8.86,5.88,14.82,5.88s10.87-1.96,14.74-5.88c3.87-3.92,5.81-8.96,5.81-15.11s-1.94-11.19-5.81-15.11c-3.87-3.92-8.79-5.88-14.74-5.88s-10.9,1.96-14.82,5.88c-3.92,3.92-5.88,8.96-5.88,15.11s1.96,11.19,5.88,15.11Z"/><path d="m148.6,458.65c2.58,9.33,9.58,14,21,14,7.35,0,12.9-2.48,16.68-7.45l15.49,8.93c-7.35,10.62-18.17,15.93-32.46,15.93-12.31,0-22.19-3.72-29.63-11.17-7.45-7.45-11.17-16.83-11.17-28.14s3.67-20.57,11.02-28.07c7.35-7.49,16.78-11.24,28.29-11.24,10.92,0,19.93,3.77,27.03,11.32,7.1,7.55,10.65,16.88,10.65,28,0,2.48-.25,5.11-.74,7.89h-56.14Zm-.3-14.89h37.97c-1.09-5.06-3.35-8.83-6.78-11.32-3.43-2.48-7.32-3.72-11.69-3.72-5.16,0-9.43,1.32-12.81,3.95-3.38,2.63-5.61,6.33-6.7,11.09Z"/><path d="m212.93,487.99v-108.71h19.21v108.71h-19.21Z"/><path d="m253.29,404.6c-3.18,0-5.93-1.17-8.26-3.5-2.33-2.33-3.5-5.09-3.5-8.26s1.17-5.96,3.5-8.34c2.33-2.38,5.09-3.57,8.26-3.57s6.08,1.19,8.41,3.57c2.33,2.38,3.5,5.16,3.5,8.34s-1.17,5.93-3.5,8.26c-2.33,2.33-5.14,3.5-8.41,3.5Zm-9.53,83.39v-74.46h19.21v74.46h-19.21Z"/><path d="m323.57,413.53h21.15l-28.29,74.46h-21.89l-28.29-74.46h21.15l18.02,52.12,18.17-52.12Z"/><path d="m361.25,458.65c2.58,9.33,9.58,14,21,14,7.35,0,12.9-2.48,16.68-7.45l15.49,8.93c-7.35,10.62-18.17,15.93-32.46,15.93-12.31,0-22.19-3.72-29.63-11.17s-11.17-16.83-11.17-28.14,3.67-20.57,11.02-28.07c7.35-7.49,16.78-11.24,28.29-11.24,10.92,0,19.93,3.77,27.03,11.32,7.1,7.55,10.65,16.88,10.65,28,0,2.48-.25,5.11-.74,7.89h-56.14Zm-.3-14.89h37.97c-1.09-5.06-3.35-8.83-6.78-11.32-3.43-2.48-7.32-3.72-11.69-3.72-5.16,0-9.43,1.32-12.81,3.95-3.38,2.63-5.61,6.33-6.7,11.09Z"/><path d="m444.79,426.34c1.79-4.77,4.74-8.34,8.86-10.72,4.12-2.38,8.71-3.57,13.77-3.57v21.44c-5.86-.69-11.09.5-15.71,3.57-4.62,3.08-6.92,8.19-6.92,15.34v35.59h-19.21v-74.46h19.21v12.81Z"/><path d="m560.49,413.53h19.21v74.46h-19.21v-8.79c-5.76,7.25-13.85,10.87-24.27,10.87s-18.44-3.8-25.54-11.39c-7.1-7.6-10.65-16.9-10.65-27.92s3.55-20.33,10.65-27.92c7.1-7.59,15.61-11.39,25.54-11.39,10.42,0,18.51,3.63,24.27,10.87v-8.79Zm-35.44,52.34c3.87,3.92,8.79,5.88,14.74,5.88s10.89-1.96,14.82-5.88c3.92-3.92,5.88-8.96,5.88-15.11s-1.96-11.19-5.88-15.11c-3.92-3.92-8.86-5.88-14.82-5.88s-10.87,1.96-14.74,5.88c-3.87,3.92-5.81,8.96-5.81,15.11s1.94,11.19,5.81,15.11Z"/><path d="m663.84,411.45c8.14,0,14.87,2.73,20.18,8.19,5.31,5.46,7.97,13.01,7.97,22.63v45.72h-19.21v-43.33c0-4.96-1.34-8.76-4.02-11.39-2.68-2.63-6.25-3.95-10.72-3.95-4.97,0-8.93,1.54-11.91,4.62-2.98,3.08-4.47,7.69-4.47,13.85v40.21h-19.21v-74.46h19.21v8.34c4.67-6.95,12.06-10.42,22.19-10.42Z"/><path d="m718.64,458.65c2.58,9.33,9.58,14,21,14,7.35,0,12.9-2.48,16.68-7.45l15.49,8.93c-7.35,10.62-18.17,15.93-32.46,15.93-12.31,0-22.19-3.72-29.63-11.17s-11.17-16.83-11.17-28.14,3.67-20.57,11.02-28.07c7.35-7.49,16.78-11.24,28.29-11.24,10.92,0,19.93,3.77,27.03,11.32,7.1,7.55,10.65,16.88,10.65,28,0,2.48-.25,5.11-.74,7.89h-56.14Zm-.3-14.89h37.97c-1.09-5.06-3.35-8.83-6.78-11.32-3.43-2.48-7.32-3.72-11.69-3.72-5.16,0-9.43,1.32-12.81,3.95-3.38,2.63-5.61,6.33-6.7,11.09Z"/><path d="m863.83,413.53h20.4l-23.68,74.46h-18.32l-13.7-45.12-13.7,45.12h-18.32l-23.68-74.46h20.4l12.66,45.72,13.55-45.72h18.17l13.55,45.87,12.66-45.87Z"/><path d="m45.11,639.03v-108.71h19.21v108.71h-19.21Z"/><path d="m92.16,609.7c2.58,9.33,9.58,14,21,14,7.35,0,12.9-2.48,16.68-7.45l15.49,8.93c-7.35,10.62-18.17,15.93-32.46,15.93-12.31,0-22.19-3.72-29.63-11.17s-11.17-16.83-11.17-28.14,3.67-20.57,11.02-28.07c7.35-7.49,16.78-11.24,28.29-11.24,10.92,0,19.93,3.77,27.03,11.32,7.1,7.55,10.65,16.88,10.65,28,0,2.48-.25,5.11-.74,7.89h-56.14Zm-.3-14.89h37.97c-1.09-5.06-3.35-8.83-6.78-11.32-3.43-2.48-7.32-3.72-11.69-3.72-5.16,0-9.43,1.32-12.81,3.95-3.38,2.63-5.61,6.33-6.7,11.09Z"/><path d="m202.51,564.57h21.15l-28.29,74.46h-21.89l-28.29-74.46h21.15l18.02,52.12,18.17-52.12Z"/><path d="m240.19,609.7c2.58,9.33,9.58,14,21,14,7.35,0,12.9-2.48,16.68-7.45l15.49,8.93c-7.35,10.62-18.17,15.93-32.46,15.93-12.31,0-22.19-3.72-29.63-11.17s-11.17-16.83-11.17-28.14,3.67-20.57,11.02-28.07c7.35-7.49,16.78-11.24,28.29-11.24,10.92,0,19.93,3.77,27.03,11.32,7.1,7.55,10.65,16.88,10.65,28,0,2.48-.25,5.11-.74,7.89h-56.14Zm-.3-14.89h37.97c-1.09-5.06-3.35-8.83-6.78-11.32-3.43-2.48-7.32-3.72-11.69-3.72-5.16,0-9.43,1.32-12.81,3.95-3.38,2.63-5.61,6.33-6.7,11.09Z"/><path d="m304.52,639.03v-108.71h19.21v108.71h-19.21Z"/><path d="m430.05,629.72c-7.65,7.59-16.98,11.39-28,11.39s-20.33-3.8-27.92-11.39c-7.59-7.6-11.39-16.9-11.39-27.92s3.8-20.33,11.39-27.92c7.59-7.6,16.9-11.39,27.92-11.39s20.35,3.8,28,11.39c7.64,7.59,11.47,16.9,11.47,27.92s-3.82,20.33-11.47,27.92Zm-42.37-13.18c3.82,3.87,8.61,5.81,14.37,5.81s10.57-1.94,14.44-5.81,5.81-8.79,5.81-14.74-1.94-10.87-5.81-14.74c-3.87-3.87-8.69-5.81-14.44-5.81s-10.55,1.94-14.37,5.81c-3.82,3.87-5.73,8.79-5.73,14.74s1.91,10.87,5.73,14.74Z"/><path d="m486.79,551.17c-10.52-.79-15.78,3.43-15.78,12.66v.74h15.78v18.46h-15.78v55.99h-19.21v-55.99h-10.72v-18.46h10.72v-.74c0-10.52,2.93-18.51,8.79-23.98,5.86-5.46,14.59-7.84,26.21-7.15v18.46Z"/><path d="m61.34,760.74c2.58,9.33,9.58,14,21,14,7.35,0,12.9-2.48,16.68-7.45l15.49,8.93c-7.35,10.62-18.17,15.93-32.46,15.93-12.31,0-22.19-3.72-29.63-11.17s-11.17-16.83-11.17-28.14,3.67-20.57,11.02-28.07c7.35-7.49,16.78-11.24,28.29-11.24,10.92,0,19.93,3.77,27.03,11.32,7.1,7.55,10.65,16.88,10.65,28,0,2.48-.25,5.11-.74,7.89h-56.14Zm-.3-14.89h37.97c-1.09-5.06-3.35-8.83-6.78-11.32-3.43-2.48-7.32-3.72-11.69-3.72-5.16,0-9.43,1.32-12.81,3.95-3.38,2.63-5.61,6.33-6.7,11.09Z"/><path d="m190.15,790.07h-22.19l-16.08-22.64-16.23,22.64h-22.19l27.25-37.97-26.06-36.48h22.19l15.04,21,15.04-21h22.04l-26.06,36.34,27.25,38.12Z"/><path d="m237.06,713.53c10.03,0,18.59,3.8,25.69,11.39,7.1,7.59,10.65,16.9,10.65,27.92s-3.55,20.33-10.65,27.92c-7.1,7.59-15.66,11.39-25.69,11.39s-18.47-3.62-24.12-10.87v38.57h-19.21v-104.24h19.21v8.79c5.66-7.25,13.7-10.87,24.12-10.87Zm-18.32,54.43c3.87,3.92,8.79,5.88,14.74,5.88s10.89-1.96,14.82-5.88c3.92-3.92,5.88-8.96,5.88-15.11s-1.96-11.19-5.88-15.11c-3.92-3.92-8.86-5.88-14.82-5.88s-10.87,1.96-14.74,5.88c-3.87,3.92-5.81,8.96-5.81,15.11s1.94,11.19,5.81,15.11Z"/><path d="m297.22,760.74c2.58,9.33,9.58,14,21,14,7.35,0,12.9-2.48,16.68-7.45l15.49,8.93c-7.35,10.62-18.17,15.93-32.46,15.93-12.31,0-22.19-3.72-29.63-11.17s-11.17-16.83-11.17-28.14,3.67-20.57,11.02-28.07c7.35-7.49,16.78-11.24,28.29-11.24,10.92,0,19.93,3.77,27.03,11.32,7.1,7.55,10.65,16.88,10.65,28,0,2.48-.25,5.11-.74,7.89h-56.14Zm-.3-14.89h37.97c-1.09-5.06-3.35-8.83-6.78-11.32-3.43-2.48-7.32-3.72-11.69-3.72-5.16,0-9.43,1.32-12.81,3.95-3.38,2.63-5.61,6.33-6.7,11.09Z"/><path d="m380.76,728.42c1.79-4.77,4.74-8.34,8.86-10.72,4.12-2.38,8.71-3.57,13.77-3.57v21.44c-5.86-.69-11.09.5-15.71,3.57-4.62,3.08-6.92,8.19-6.92,15.34v35.59h-19.21v-74.46h19.21v12.81Z"/><path d="m418.13,706.68c-3.18,0-5.93-1.17-8.26-3.5-2.33-2.33-3.5-5.09-3.5-8.26s1.17-5.96,3.5-8.34c2.33-2.38,5.09-3.57,8.26-3.57s6.08,1.19,8.41,3.57c2.33,2.38,3.5,5.16,3.5,8.34s-1.17,5.93-3.5,8.26c-2.33,2.33-5.14,3.5-8.41,3.5Zm-9.53,83.39v-74.46h19.21v74.46h-19.21Z"/><path d="m455.66,760.74c2.58,9.33,9.58,14,21,14,7.35,0,12.9-2.48,16.68-7.45l15.49,8.93c-7.35,10.62-18.17,15.93-32.46,15.93-12.31,0-22.19-3.72-29.63-11.17s-11.17-16.83-11.17-28.14,3.67-20.57,11.02-28.07c7.35-7.49,16.78-11.24,28.29-11.24,10.92,0,19.93,3.77,27.03,11.32,7.1,7.55,10.65,16.88,10.65,28,0,2.48-.25,5.11-.74,7.89h-56.14Zm-.3-14.89h37.97c-1.09-5.06-3.35-8.83-6.78-11.32-3.43-2.48-7.32-3.72-11.69-3.72-5.16,0-9.43,1.32-12.81,3.95-3.38,2.63-5.61,6.33-6.7,11.09Z"/><path d="m561.39,713.53c8.14,0,14.87,2.73,20.18,8.19,5.31,5.46,7.97,13.01,7.97,22.63v45.72h-19.21v-43.33c0-4.96-1.34-8.76-4.02-11.39-2.68-2.63-6.25-3.95-10.72-3.95-4.97,0-8.93,1.54-11.91,4.62-2.98,3.08-4.47,7.7-4.47,13.85v40.21h-19.21v-74.46h19.21v8.34c4.67-6.95,12.06-10.42,22.19-10.42Z"/><path d="m635.4,792.16c-11.22,0-20.58-3.77-28.07-11.32-7.5-7.54-11.24-16.88-11.24-28s3.75-20.45,11.24-28c7.49-7.54,16.85-11.32,28.07-11.32,7.25,0,13.85,1.74,19.81,5.21,5.96,3.48,10.47,8.14,13.55,14l-16.53,9.68c-1.49-3.08-3.75-5.51-6.78-7.3-3.03-1.79-6.43-2.68-10.2-2.68-5.76,0-10.52,1.91-14.3,5.73-3.77,3.82-5.66,8.71-5.66,14.67s1.89,10.7,5.66,14.52c3.77,3.82,8.54,5.73,14.3,5.73,3.87,0,7.32-.87,10.35-2.61,3.03-1.74,5.29-4.14,6.78-7.22l16.68,9.53c-3.28,5.86-7.89,10.55-13.85,14.07-5.96,3.52-12.56,5.29-19.81,5.29Z"/><path d="m688.26,760.74c2.58,9.33,9.58,14,21,14,7.35,0,12.9-2.48,16.68-7.45l15.49,8.93c-7.35,10.62-18.17,15.93-32.46,15.93-12.31,0-22.19-3.72-29.63-11.17-7.45-7.45-11.17-16.83-11.17-28.14s3.67-20.57,11.02-28.07c7.35-7.49,16.78-11.24,28.29-11.24,10.92,0,19.93,3.77,27.03,11.32,7.1,7.55,10.65,16.88,10.65,28,0,2.48-.25,5.11-.74,7.89h-56.14Zm-.3-14.89h37.97c-1.09-5.06-3.35-8.83-6.78-11.32-3.43-2.48-7.32-3.72-11.69-3.72-5.16,0-9.43,1.32-12.81,3.95-3.38,2.63-5.61,6.33-6.7,11.09Z"/></g><g><path d="m46.28,939.25v-1.62h-7.83v-4.25h21.1v4.25h-7.83v1.62c0,6.64,3.06,13.57,9.44,16.34l-3.15,4.17c-4.38-2.04-7.32-6-8.98-10.81-1.62,5.15-4.64,9.44-9.06,11.66l-3.15-4.25c6.38-2.89,9.44-10.08,9.44-17.1Zm23.14,28.42h-5.36v-20.42h-6.72v-4.25h6.72v-13.27h5.36v37.95Z"/><path d="m72.49,948.27h34.54v4.17h-34.54v-4.17Zm4,7.23h5.28v6.98h21.7v4.25h-26.97v-11.23Zm26.72-11.23h-26.37v-13.19h5.27v9.02h21.1v4.17Z"/><path d="m135.03,954.65l-3.06,4.17c-3.28-1.83-5.4-4.89-6.68-8.64-1.32,4.21-3.62,7.7-7.02,9.74l-3.32-3.83c5.66-3.4,7.83-10.17,7.83-16.59v-6.47h5.19v6.13c-.04,6.47,1.74,12.63,7.06,15.48Zm.09-24.33h4.94v14.21h3.32v-14.8h5.02v37.86h-5.02v-18.8h-3.32v17.02h-4.94v-35.48Z"/><path d="m185.31,963.33h-34.63v-4.34h14.63v-5.7h-10.64v-12.68h21.36v-4.17h-21.44v-4.25h26.72v12.59h-21.35v4.25h22.21v4.25h-11.66v5.7h14.8v4.34Z"/><path d="m220.29,952.36h-14.29v6.64h-5.36v-6.64h-14.89v-4.17h34.54v4.17Zm-17.27-21.87c8.17.04,13.61,3.06,13.61,7.83s-5.45,7.83-13.61,7.83-13.74-2.98-13.7-7.83c-.04-4.76,5.45-7.79,13.7-7.83Zm-13.19,25.1h5.36v7.06h21.27v4.25h-26.63v-11.32Zm13.19-13.7c4.85,0,7.95-1.23,8-3.57-.04-2.38-3.15-3.66-8-3.66s-8.04,1.28-8,3.66c-.04,2.34,3.1,3.57,8,3.57Z"/><path d="m251.35,955.93l-2.89,4c-4.04-1.83-6.89-5.4-8.46-9.61-1.66,4.51-4.59,8.34-8.89,10.21l-2.89-4.08c6.17-2.72,9.1-9.15,9.1-14.8v-1.45h-7.83v-4.25h7.83v-5.36h5.28v5.36h7.74v4.25h-7.74v1.45c-.04,5.36,2.77,11.44,8.76,14.29Zm2.04-26.2h5.36v14.72h5.53v4.42h-5.53v18.72h-5.36v-37.86Z"/><path d="m288.11,945.38l.26,3.83c-2.98.51-6.04.85-9.1,1.06v7.19h-5.36v5.19h22.97v4.25h-28.25v-11.32h5.27v-4.98c-3.36.13-6.59.13-9.44.13l-.68-4.17c6.98-.09,16.34-.13,24.33-1.19Zm-12-14.29c5.53,0,9.44,2.77,9.44,6.81s-3.91,6.64-9.44,6.64-9.49-2.59-9.53-6.64c.04-4.04,3.91-6.81,9.53-6.81Zm0,9.61c2.55,0,4.38-.98,4.42-2.81-.04-1.91-1.87-2.94-4.42-2.89-2.68-.04-4.51.98-4.51,2.89s1.83,2.81,4.51,2.81Zm19.91,17.7h-5.36v-3.06h-7.23v-3.57h7.23v-21.95h5.36v28.59Z"/><path d="m323.34,954.4l.43,3.83c-8.38,1.66-17.36,1.7-23.99,1.7l-.6-4.25c6.76-.04,16.12-.13,24.16-1.28Zm-1.62-12.85c0,5.45-4.47,9.32-10.47,9.27-5.96.04-10.51-3.83-10.46-9.27-.04-5.4,4.51-9.27,10.46-9.27s10.47,3.87,10.47,9.27Zm-10.47,4.76c3.02-.04,5.32-1.74,5.36-4.76-.04-2.94-2.34-4.68-5.36-4.68s-5.23,1.74-5.19,4.68c-.04,3.02,2.21,4.72,5.19,4.76Zm14.29-16.59h5.27v37.95h-5.27v-37.95Z"/><path d="m374.05,951.59h-5.28v-3.74h-8.51v-4.17h8.51v-3.66h-8.13c-2.34,6-7.74,10.12-16.04,12.34l-2.13-4.08c8.68-2.34,12.98-6.51,13.74-11.66h-11.7v-4.25h17.44c0,1.23-.09,2.38-.26,3.49h7.06v-6.04h5.28v21.78Zm-12.59.43c7.66.04,12.85,2.98,12.85,7.66s-5.19,7.74-12.85,7.74-12.98-2.98-12.93-7.74c-.04-4.68,5.15-7.61,12.93-7.66Zm0,11.23c4.68-.04,7.53-1.23,7.57-3.57-.04-2.3-2.89-3.53-7.57-3.49-4.81-.04-7.66,1.19-7.66,3.49s2.85,3.53,7.66,3.57Z"/><path d="m377.29,933.04h8.59v-3.57h5.19v3.57h8.51v4.25h-22.29v-4.25Zm11.14,5.53c5.36-.04,9.1,2.81,9.1,6.72,0,4.13-3.74,6.85-9.1,6.89-5.23-.04-9.06-2.77-9.02-6.89-.04-3.91,3.79-6.76,9.02-6.72Zm-4.76,15.65h25.44v12.93h-25.44v-12.93Zm4.76-5.96c2.43-.04,4.04-1.06,4-2.98.04-1.79-1.57-2.77-4-2.81-2.42.04-4,1.02-4,2.81,0,1.91,1.57,2.94,4,2.98Zm15.48,14.63v-4.51h-14.97v4.51h14.97Zm5.19-10.3h-5.28v-7.4h-4.93v-4.34h4.93v-11.15h5.28v22.89Z"/><path d="m412.26,945.04h34.54v4.17h-34.54v-4.17Zm30.97-8.25c0,4.17-5.02,6.47-13.7,6.47s-13.83-2.3-13.78-6.47c-.04-4.21,5.02-6.47,13.78-6.47s13.7,2.25,13.7,6.47Zm-26.97,20.59h21.1v-2.04h-21.1v-3.91h26.29v9.61h-21.1v2.3h22.12v4h-27.31v-9.95Zm13.27-18.04c5.57,0,8.25-.72,8.25-2.55,0-1.7-2.68-2.59-8.25-2.64-5.57.04-8.25.94-8.25,2.64,0,1.83,2.68,2.55,8.25,2.55Z"/><path d="m476.93,937.64h-7.57c.09,3.74,2.81,7.53,8.85,9.02l-2.38,4.08c-4.34-1.11-7.36-3.45-9.06-6.47-1.7,3.32-4.72,5.96-9.15,7.15l-2.47-4.17c6-1.53,8.85-5.53,8.93-9.61h-7.66v-4.17h7.66v-3.83h5.36v3.83h7.49v4.17Zm-6.89,19.48h-9.61v-4.17h25.44v4.17h-9.61c.98,2.81,4.72,5.49,11.32,6.3l-1.96,4.08c-6.04-.81-10.3-3.23-12.47-6.47-2.21,3.23-6.42,5.57-12.46,6.38l-1.87-4c6.59-.85,10.3-3.45,11.23-6.3Zm10.04-27.4h5.36v8.51h5.1v4.42h-5.1v8.68h-5.36v-21.61Z"/><path d="m510.63,945.89c-.04,8.3-4.21,13.53-9.95,13.53s-10-5.23-9.95-13.53c-.04-8.25,4.13-13.44,9.95-13.44s9.91,5.19,9.95,13.44Zm-9.95,8.68c2.93,0,4.85-3.02,4.85-8.68s-1.91-8.68-4.85-8.68-4.89,3.06-4.85,8.68c-.04,5.66,1.96,8.68,4.85,8.68Zm14.29-24.84h5.36v14.29h5.53v4.42h-5.53v19.14h-5.36v-37.86Z"/><path d="m60.31,1027.15l-3.23,4.25c-4-2-6.76-5.7-8.34-10.25-1.66,4.89-4.55,8.89-8.85,11.02l-3.23-4.34c6.38-2.94,9.36-10.17,9.36-17.19v-5.62h5.36v5.62c-.04,6.81,2.85,13.61,8.93,16.51Zm1.62-25.1h5.36v14.63h5.53v4.42h-5.53v18.8h-5.36v-37.86Z"/><path d="m73.85,1011.5h12.17v-3.32h-12.17v-4.17h17.36v11.49h-12v3.4c6.21-.04,10.42-.26,15.23-1.11l.6,4.17c-5.45,1.06-10.3,1.23-17.95,1.28h-3.23v-11.74Zm3.91,14.63h24.76v13.36h-24.76v-13.36Zm19.57,9.1v-4.94h-14.38v4.94h14.38Zm5.19-24.16h5.1v4.42h-5.1v9.1h-5.36v-22.46h5.36v8.93Z"/><path d="m142.09,1021.03h-34.54v-4.17h34.54v4.17Zm-30.54,8.34h21.1v-2.13h-21.1v-4h26.29v9.87h-21.1v2.38h22.12v4.08h-27.31v-10.21Zm.34-26.46h25.86v4.17h-20.59v3.49h20.84v4.17h-26.12v-11.83Z"/><path d="m151.2,1004.78c4.51,0,7.66,4.25,8.25,11.32h3.06v-13.44h5.02v35.48h-5.02v-17.78h-3.06c-.47,7.4-3.62,11.87-8.25,11.83-5.02.04-8.25-5.19-8.25-13.7s3.23-13.7,8.25-13.7Zm0,22.38c2.17,0,3.45-2.85,3.4-8.68.04-5.78-1.23-8.68-3.4-8.68s-3.4,2.89-3.4,8.68,1.28,8.68,3.4,8.68Zm24.16,12.76h-5.02v-37.86h5.02v37.86Z"/><path d="m188.93,1010.82h-9.66v-4.25h14.89c0,3.62-.38,7.02-1.28,10.12h4.51v-13.7h5.02v35.22h-5.02v-17.36h-6.13c-2.17,4.34-5.66,8.08-11.06,11.14l-2.98-3.66c7.66-4.55,10.98-10.08,11.7-17.53Zm21.48,29.1h-4.94v-37.86h4.94v37.86Z"/><path d="m227.7,1012.26v-2.04h-6.21v-4.25h17.02v4.25h-5.7v2.04c-.04,6.25,1.96,12.59,7.49,15.74l-3.15,3.91c-3.4-2-5.57-5.36-6.85-9.4-1.32,4.38-3.57,8.13-7.02,10.25l-3.23-3.91c5.57-3.4,7.66-10.21,7.66-16.59Zm8.17,2.81h4.94v-12.34h4.93v35.39h-4.93v-18.8h-4.94v-4.25Zm17.61,24.84h-5.02v-37.86h5.02v37.86Z"/><path d="m255.95,1018.99h12.85v-6.64h5.27v6.64h16.25v4.25h-34.37v-4.25Zm30.46,13.78c-.04,4.51-5.23,7.15-13.53,7.15s-13.44-2.64-13.44-7.15,5.27-7.1,13.44-7.15c8.3.04,13.49,2.64,13.53,7.15Zm-26.55-28.93h26.37v3.06c0,2.98,0,6.21-1.11,10.12l-5.19-.51c.85-3.45.98-6,.94-8.59h-21.01v-4.08Zm13.02,32.08c5.23-.04,8.25-1.06,8.25-3.15s-3.02-3.19-8.25-3.15c-5.19-.04-8.17,1.06-8.17,3.15s2.98,3.11,8.17,3.15Z"/><path d="m290.75,1007.76h8.51v-5.1h5.36v5.1h8.34v4.25h-22.21v-4.25Zm11.23,6.38c5.49-.04,9.61,3.7,9.61,9.02s-4.13,8.98-9.61,8.93c-5.62.04-9.74-3.7-9.7-8.93-.04-5.32,4.08-9.06,9.7-9.02Zm0,13.61c2.59.04,4.51-1.7,4.51-4.59s-1.91-4.72-4.51-4.76c-2.72.04-4.64,1.83-4.59,4.76-.04,2.89,1.87,4.64,4.59,4.59Zm18.8-10.81h5.53v4.34h-5.53v18.63h-5.27v-37.86h5.27v14.89Z"/><path d="m325.98,1020.6h34.54v4.17h-34.54v-4.17Zm4,7.23h5.28v6.98h21.7v4.25h-26.97v-11.23Zm26.72-11.23h-26.37v-13.19h5.27v9.02h21.1v4.17Z"/><path d="m388.44,1008.52h-12.51v2.98h11.74v4.17h-11.74v3.06c6.13-.04,10.08-.17,14.55-1.02l.6,4.17c-5.15.89-9.7,1.02-17.36,1.02h-3.15v-18.63h17.87v4.25Zm-14.04,17.36h24.76v13.61h-24.76v-13.61Zm19.48,9.36v-5.27h-14.21v5.27h14.21Zm-.09-33.18h5.36v8.85h5.1v4.42h-5.1v8.85h-5.36v-22.12Z"/><path d="m404.27,1005.37h8.59v-3.57h5.19v3.57h8.51v4.25h-22.29v-4.25Zm11.14,5.53c5.36-.04,9.1,2.81,9.1,6.72,0,4.13-3.74,6.85-9.1,6.89-5.23-.04-9.06-2.77-9.02-6.89-.04-3.91,3.79-6.76,9.02-6.72Zm-4.76,15.65h25.44v12.93h-25.44v-12.93Zm4.76-5.96c2.43-.04,4.04-1.06,4-2.98.04-1.79-1.57-2.77-4-2.81-2.42.04-4,1.02-4,2.81,0,1.91,1.57,2.94,4,2.98Zm15.48,14.63v-4.51h-14.97v4.51h14.97Zm5.19-10.3h-5.28v-7.4h-4.93v-4.34h4.93v-11.15h5.28v22.89Z"/><path d="m453.57,1010.31h-12.55v-4.34h17.95c-.04,11.32-4.42,21.1-17.1,27.31l-3.06-4c8.98-4.51,13.74-10.55,14.76-18.97Zm15.53,6.3h5.36v4.34h-5.36v18.89h-5.36v-37.78h5.36v14.55Z"/><path d="m485.27,1003.67c5.87,0,10.29,3.66,10.29,8.93s-4.42,8.89-10.29,8.93c-5.96-.04-10.38-3.74-10.38-8.93s4.42-8.93,10.38-8.93Zm0,13.44c2.93.04,5.06-1.66,5.02-4.51.04-2.81-2.08-4.51-5.02-4.51s-5.23,1.7-5.19,4.51c-.04,2.85,2.13,4.55,5.19,4.51Zm-4.59,6.98h5.19v3.49h14.8v-3.49h5.27v15.4h-25.27v-15.4Zm19.99,11.15v-3.49h-14.8v3.49h14.8Zm5.27-12.85h-5.27v-20.33h5.27v20.33Z"/><path d="m511.4,1005.71h5.27v20.33c5.1-.09,10.59-.55,16.17-1.62l.6,4.34c-6.59,1.4-12.85,1.83-18.72,1.79h-3.32v-24.84Zm29.78,34.2h-5.27v-37.86h5.27v37.86Z"/><path d="m545.95,1005.63h17.7v4.25h-12.42v16.59c5.49-.09,10-.34,14.97-1.19l.6,4.42c-5.83.98-10.98,1.15-17.7,1.11h-3.15v-25.18Zm28.33,10.55h5.53v4.25h-5.53v19.57h-5.36v-37.95h5.36v14.12Z"/><path d="m580.92,1032.94c-.09-1.87,1.53-3.45,3.49-3.4,1.83-.04,3.45,1.53,3.49,3.4-.04,1.96-1.66,3.53-3.49,3.49-1.96.04-3.57-1.53-3.49-3.49Z"/></g></g></svg>