<?xml version="1.0" encoding="UTF-8"?><svg id="_레이어_1" xmlns="http://www.w3.org/2000/svg" xmlns:xlink="http://www.w3.org/1999/xlink" viewBox="0 0 258.54 258.54"><defs><style>.cls-1{fill:none;}.cls-2{clip-path:url(#clippath);}.cls-3{fill:#fff;}.cls-4{fill:#eff0f3;}.cls-5{fill:#d8d8d8;}</style><clipPath id="clippath"><rect class="cls-1" width="258.54" height="258.54"/></clipPath></defs><g id="_그룹_5136"><g class="cls-2"><g id="_그룹_5135"><g id="_그룹_5134"><g id="_그룹_5128"><path id="_패스_546" class="cls-4" d="m151.4,22.4h0c16.69-12.22,40.13-8.59,52.35,8.1,5.52,7.54,8.02,16.88,7.01,26.18h0c-1.77,16.23,7.18,31.74,22.12,38.32h0c18.93,8.34,27.51,30.45,19.17,49.38-3.77,8.56-10.61,15.39-19.17,19.17h0c-14.94,6.59-23.89,22.09-22.12,38.32h0c2.24,20.56-12.62,39.05-33.19,41.29-9.3,1.01-18.63-1.49-26.18-7.01h0c-13.17-9.64-31.08-9.64-44.25,0h0c-16.69,12.22-40.13,8.59-52.35-8.1-5.52-7.54-8.02-16.88-7.01-26.18h0c1.76-16.23-7.19-31.74-22.12-38.32h0c-18.93-8.34-27.51-30.45-19.17-49.38,3.77-8.56,10.61-15.39,19.17-19.17h0c14.94-6.59,23.89-22.09,22.12-38.32h0c-2.24-20.56,12.62-39.05,33.19-41.29,9.29-1.01,18.63,1.49,26.18,7.01h0c13.17,9.64,31.08,9.64,44.25,0Z"/><path id="_패스_547" class="cls-5" d="m173.37,18.41c9.84.03,19.2,4.25,25.75,11.59,6.43,7.17,9.46,16.76,8.32,26.32-1.98,17.69,7.79,34.6,24.1,41.74,17.24,7.6,25.06,27.74,17.46,44.99-3.44,7.79-9.66,14.02-17.46,17.46-16.31,7.13-26.07,24.05-24.1,41.74,1.14,9.56-1.89,19.15-8.32,26.32-6.55,7.34-15.92,11.55-25.75,11.59-7.21-.03-14.22-2.37-20-6.68-14.35-10.5-33.85-10.5-48.19,0-5.78,4.31-12.79,6.65-20,6.68-9.84-.03-19.2-4.24-25.75-11.58-6.43-7.17-9.46-16.76-8.32-26.32,1.97-17.69-7.79-34.6-24.1-41.74-17.24-7.6-25.06-27.74-17.46-44.99,3.44-7.79,9.66-14.02,17.46-17.46,16.31-7.13,26.07-24.05,24.1-41.74-1.14-9.56,1.89-19.15,8.32-26.32,6.55-7.34,15.92-11.55,25.76-11.59,7.21.03,14.22,2.38,20,6.69,14.35,10.5,33.85,10.5,48.19,0,5.78-4.31,12.79-6.65,20-6.69m0-3.32c-7.92.02-15.62,2.58-21.98,7.31h0c-13.17,9.64-31.08,9.64-44.25,0h0c-6.35-4.74-14.05-7.31-21.98-7.33-20.72-.05-37.56,16.71-37.61,37.43,0,1.39.07,2.79.22,4.17h0c1.76,16.23-7.19,31.74-22.12,38.32h0C6.73,103.34-1.85,125.45,6.49,144.38c3.77,8.56,10.61,15.39,19.17,19.17h0c14.94,6.59,23.89,22.09,22.12,38.32h0c-2.26,20.6,12.61,39.12,33.21,41.38,1.39.15,2.78.23,4.18.22,7.92-.02,15.63-2.59,21.98-7.33h0c13.17-9.64,31.08-9.64,44.25,0h0c6.35,4.74,14.05,7.31,21.97,7.33,20.72.05,37.56-16.7,37.61-37.42,0-1.39-.07-2.79-.22-4.18h0c-1.77-16.23,7.18-31.74,22.12-38.32h0c18.93-8.34,27.51-30.45,19.17-49.38-3.77-8.56-10.61-15.39-19.17-19.17h0c-14.94-6.59-23.89-22.09-22.12-38.32h0c2.26-20.6-12.61-39.12-33.21-41.38-1.39-.15-2.79-.23-4.18-.22v.02Z"/></g><g id="_그룹_5129"><path id="_패스_548" class="cls-3" d="m175.56,191c0,7.28-5.9,13.18-13.18,13.18-7.28,0-13.18-5.9-13.18-13.18,0-4.68,2.48-9.01,6.52-11.37v-24.51h13.33v24.52c4.04,2.36,6.52,6.68,6.52,11.35Z"/><path id="_패스_549" class="cls-5" d="m165.7,158.46v21.19c0,1.19.63,2.28,1.65,2.88,4.69,2.75,6.26,8.79,3.51,13.48-2.75,4.69-8.79,6.26-13.48,3.51-4.69-2.75-6.26-8.79-3.51-13.48.85-1.45,2.06-2.65,3.51-3.51,1.02-.6,1.65-1.69,1.65-2.88v-21.17h6.65m3.32-3.32h-13.33v24.5c-6.28,3.68-8.39,11.76-4.71,18.04s11.76,8.39,18.04,4.71c6.28-3.68,8.39-11.76,4.71-18.04-1.14-1.95-2.76-3.57-4.71-4.71v-24.52.03Z"/></g><g id="_그룹_5130"><path id="_패스_550" class="cls-3" d="m136.18,129.29c.01,4.98-1.17,9.89-3.44,14.32-.83,1.61-1.79,3.15-2.87,4.6-10.46,13.93-30.23,16.75-44.17,6.29-7.68-5.76-12.31-14.71-12.59-24.3v-.91c0-17.42,14.12-31.54,31.54-31.54,9.93,0,19.27,4.67,25.23,12.61l.07.11c3.43,4.6,5.53,10.06,6.08,15.77.09.99.14,2.02.14,3.05Z"/><path id="_패스_551" class="cls-5" d="m104.65,101.07c8.86,0,17.2,4.15,22.53,11.22l.11.15c3.07,4.12,4.95,9,5.43,14.11.09.9.13,1.81.13,2.72.02,4.45-1.04,8.84-3.07,12.8-.74,1.44-1.59,2.82-2.56,4.11-9.35,12.46-27.03,14.99-39.49,5.64-6.86-5.14-11.01-13.13-11.27-21.7v-.86c.02-15.56,12.63-28.18,28.19-28.2m0-3.32c-17.42,0-31.54,14.12-31.53,31.54v.91c.51,17.41,15.04,31.12,32.46,30.61,9.6-.28,18.54-4.92,24.3-12.59,1.08-1.45,2.04-2.99,2.87-4.6,2.27-4.43,3.45-9.34,3.44-14.32,0-1.03-.05-2.05-.15-3.05-.55-5.71-2.65-11.17-6.08-15.77l-.07-.11c-2.67-3.55-6.05-6.49-9.92-8.65-4.68-2.61-9.95-3.97-15.31-3.96h.01Z"/></g><circle id="_타원_85" class="cls-5" cx="88.87" cy="129.28" r="15.77"/><circle id="_타원_86" class="cls-3" cx="88.87" cy="129.27" r="3.15"/><g id="_그룹_5131"><path id="_패스_552" class="cls-3" d="m186.64,129.29c0,17.42-14.13,31.54-31.55,31.53-16.92,0-30.82-13.36-31.51-30.27v-2.08c.15-6.47,2.3-12.74,6.15-17.94.05-.06.09-.13.14-.18,10.46-13.93,30.24-16.75,44.17-6.28,7.93,5.96,12.6,15.3,12.6,25.22h-.01Z"/><path id="_패스_553" class="cls-5" d="m155.1,101.07c9.03.02,17.51,4.34,22.83,11.64,3.52,4.81,5.4,10.61,5.38,16.57,0,15.58-12.64,28.2-28.22,28.2-8.87,0-17.23-4.18-22.55-11.28-3.44-4.56-5.4-10.07-5.62-15.78v-1.88c.13-5.76,2.04-11.35,5.46-15.99l.08-.11v-.02l.07-.09c5.33-7.09,13.69-11.26,22.56-11.27m0-3.32c-9.92,0-19.27,4.68-25.23,12.61-.05.06-.09.13-.14.18-3.85,5.2-6,11.47-6.15,17.94v2.08c.7,17.41,15.38,30.95,32.78,30.25,17.41-.7,30.95-15.38,30.25-32.78-.68-16.91-14.59-30.28-31.52-30.28h.01Z"/></g><circle id="_타원_87" class="cls-5" cx="139.33" cy="129.28" r="15.77"/><circle id="_타원_88" class="cls-3" cx="139.33" cy="129.27" r="3.15"/><g id="_그룹_5132"><path id="_패스_554" class="cls-4" d="m136.18,129.29h-63.08c0-17.42,14.12-31.54,31.54-31.54,9.93,0,19.27,4.67,25.23,12.61l.07.11c3.43,4.6,5.53,10.06,6.08,15.77.1.99.15,2.02.15,3.05Z"/><path id="_패스_555" class="cls-5" d="m104.65,101.07c8.86,0,17.2,4.15,22.53,11.22l.11.15c2.94,3.95,4.8,8.6,5.37,13.49h-56.01c1.71-14.17,13.72-24.85,28-24.87m0-3.32c-17.42,0-31.54,14.12-31.53,31.54h63.08c0-1.03-.05-2.05-.15-3.05-.55-5.71-2.65-11.17-6.08-15.77l-.07-.11c-2.67-3.55-6.05-6.49-9.92-8.65-4.68-2.61-9.95-3.97-15.31-3.96Z"/></g><g id="_그룹_5133"><path id="_패스_556" class="cls-4" d="m186.64,129.29h-63.08v-.81c.15-6.47,2.3-12.74,6.15-17.94.05-.06.09-.13.14-.18,10.46-13.93,30.24-16.75,44.17-6.28,7.93,5.96,12.6,15.3,12.6,25.22h.01Z"/><path id="_패스_557" class="cls-5" d="m155.1,101.07c9.03.02,17.51,4.34,22.83,11.64,2.84,3.89,4.62,8.45,5.17,13.23h-55.99c.56-4.84,2.38-9.45,5.28-13.37l.08-.11v-.02l.07-.09c5.33-7.09,13.69-11.26,22.56-11.27m0-3.32c-9.92,0-19.27,4.68-25.23,12.61-.05.06-.09.13-.14.18-3.85,5.2-6,11.47-6.15,17.94v.81h63.08c0-17.42-14.12-31.54-31.54-31.54h-.01Z"/></g></g></g></g></g></svg>