<?xml version="1.0" encoding="UTF-8"?><svg id="_레이어_1" xmlns="http://www.w3.org/2000/svg" viewBox="0 0 1080 1080"><defs><style>.cls-1{fill:#00ff24;}.cls-2{fill:#1b1d24;}</style></defs><g id="_그룹_158"><rect id="_사각형_79" class="cls-2" width="1080" height="1080"/></g><g id="_그룹_157"><path id="_패스_70" class="cls-1" d="m581.39,311.9c-7.59-4.81-15.67-8.81-24.1-11.93-8.02-3.13-16.51-4.85-25.11-5.1-16.8-.66-30.88,8.08-40.02,21.4-9.14,13.49-16.53,29.93-15.33,44.08.49,7.03,3.05,13.75,7.35,19.33,2.28,2.96,4.87,5.66,7.73,8.06,1.46,1.26,3,2.48,4.65,3.67l5.66,4.03c8.23,6.12,15.35,13.61,21.05,22.14,6.17,9.02,9.68,19.59,10.16,30.51.2,10.89-2.72,21.6-8.42,30.88-5.31,8.44-11.93,15.97-19.61,22.32-7.21,6.15-14.99,11.6-23.23,16.28-8,4.67-16.27,8.87-24.76,12.58-16.77,7.33-34.09,13.3-51.81,17.87,16.09-8.57,32.1-17,47.29-26.49,15.1-8.97,29.11-19.64,41.78-31.81,11.85-12,20.73-26.64,19.39-40.62-1.12-13.9-11.67-27.26-24.41-36.72l-5.44-3.79c-2.03-1.45-4.07-3.01-6.05-4.68-4.07-3.44-7.73-7.34-10.91-11.62-6.72-8.96-10.52-19.77-10.87-30.97-.12-10.56,2.18-21.01,6.74-30.54,4.05-9.03,9.36-17.43,15.77-24.97,6.57-7.52,14.58-14.49,24.33-18.38,9.52-3.83,19.91-4.94,30.02-3.21,9.45,1.77,18.5,5.25,26.69,10.28,7.95,4.75,15.17,10.61,21.47,17.39"/><path id="_패스_71" class="cls-1" d="m464.8,597.67c-23.86,0-31.92-6.17-35.92-13.05-5.49-9.42-1.15-19.97,4.22-26.15l1.65-1.89,2.32-.95c121.68-50.05,157.28-168.06,165.31-203.04h0c2.94-12.8,13.77-22.25,26.85-23.43,12.91-1.12,25.92-.02,38.46,3.26,16.59,4.23,22.66,14.37,24.82,22.14,10.38,37.24-50.36,105.2-72.13,128.02,3.84,10.66,8.61,31.4-1.42,52.85-12.28,26.26-42.12,44.36-88.72,53.83-29.77,6.04-50.65,8.42-65.45,8.42m-16.78-23.49c3.88,1.81,20.11,6,77.99-5.76,39.08-7.93,64.55-22.45,73.69-41.99,9.65-20.64-1.09-40.93-1.2-41.13l-3.73-6.91,5.51-5.6c33.37-33.91,77.69-91.24,71.75-112.54-.43-1.55-1.44-5.18-9.6-7.26-10.18-2.68-20.74-3.59-31.23-2.7-3.94.34-7.21,3.17-8.12,7.01-8.53,37.21-46.25,162.13-174.99,216.72-.02.05-.04.09-.07.14"/></g><g><path class="cls-1" d="m372.29,694.61c-1.97-2.32-4.41-4.15-7.31-5.49-2.9-1.33-5.92-2-9.06-2-1.63,0-3.34.32-5.14.96-1.8.64-3.43,1.6-4.88,2.87-1.45,1.28-2.67,2.87-3.66,4.79-.99,1.91-1.48,4.21-1.48,6.88,0,3.37,1.02,6.16,3.05,8.36,2.03,2.21,5.08,4.47,9.14,6.79,2.32,1.39,4.79,3.05,7.4,4.96,2.61,1.91,4.99,4.18,7.14,6.79,2.15,2.61,3.92,5.63,5.31,9.06,1.39,3.43,2.09,7.4,2.09,11.93,0,7.08-1.19,13.26-3.57,18.55-2.38,5.28-5.57,9.7-9.58,13.24-4.01,3.54-8.56,6.18-13.67,7.92-5.11,1.74-10.39,2.61-15.85,2.61-7.55,0-14.45-1.28-20.72-3.83-6.27-2.55-11.15-5.69-14.63-9.4l15.85-20.03c2.32,2.67,5.19,4.85,8.62,6.53,3.42,1.68,6.99,2.52,10.71,2.52,1.86,0,3.71-.35,5.57-1.04,1.85-.7,3.51-1.68,4.96-2.96,1.45-1.28,2.61-2.84,3.48-4.7.87-1.85,1.31-3.95,1.31-6.27,0-3.37-1.02-6.36-3.05-8.97-2.03-2.61-5.37-5.25-10.01-7.92-2.67-1.51-5.25-3.19-7.75-5.05-2.5-1.86-4.7-4.06-6.62-6.62-1.91-2.55-3.46-5.46-4.61-8.71-1.16-3.25-1.74-7.02-1.74-11.32,0-5.92,1.04-11.43,3.13-16.54,2.09-5.11,4.99-9.52,8.71-13.23,3.71-3.71,8.18-6.64,13.41-8.79,5.22-2.15,10.97-3.22,17.24-3.22,7.08,0,13.41,1.11,18.98,3.31,5.57,2.21,9.93,5.11,13.06,8.71l-15.85,19.33Z"/><path class="cls-1" d="m454.13,689.21h-22.64l-17.59,100.48h-26.47l17.59-100.48h-22.64l4.01-22.81h71.75l-4.01,22.81Z"/><path class="cls-1" d="m515.95,689.9h-32.22l-4.53,25.6h30.13l-3.83,21.94h-29.95l-4.88,28.21h35.18l-4.18,24.03h-60.78l21.42-123.29h57.64l-4.01,23.51Z"/><path class="cls-1" d="m600.41,698.44c0,7.31-1.07,13.82-3.22,19.5-2.15,5.69-5.14,10.45-8.97,14.28-3.83,3.83-8.39,6.73-13.67,8.71-5.28,1.97-11.06,2.96-17.33,2.96h-12.54l-8.01,45.8h-26.12l21.42-123.29h35.18c4.18,0,8.27.58,12.28,1.74,4.01,1.16,7.58,3.05,10.71,5.66,3.13,2.61,5.63,5.95,7.49,10.01,1.86,4.07,2.79,8.94,2.79,14.63Zm-25.43,3.83c0-4.18-1.07-7.43-3.22-9.75-2.15-2.32-5.08-3.48-8.79-3.48h-8.88l-5.57,33.26h9.23c5.22,0,9.4-1.8,12.54-5.4,3.13-3.6,4.7-8.47,4.7-14.63Z"/><path class="cls-1" d="m708.37,694.61c0,4.18-.55,7.95-1.66,11.32-1.1,3.37-2.61,6.33-4.53,8.88-1.92,2.56-4.12,4.7-6.62,6.44-2.5,1.74-5.2,3.08-8.1,4.01l.17.35c2.09.58,4.06,1.51,5.92,2.79,1.85,1.28,3.54,2.9,5.05,4.88,1.51,1.97,2.7,4.27,3.57,6.88s1.31,5.55,1.31,8.79c0,7.2-1.25,13.35-3.74,18.46-2.5,5.11-5.78,9.32-9.84,12.63-4.07,3.31-8.62,5.75-13.67,7.31-5.05,1.57-10.19,2.35-15.41,2.35h-40.75l21.42-123.29h35.87c3.6,0,7.23.5,10.88,1.48,3.66.99,6.97,2.58,9.93,4.79,2.96,2.21,5.4,5.11,7.31,8.71,1.92,3.6,2.87,8.01,2.87,13.23Zm-30.47,54.33c0-4.64-1.37-7.92-4.09-9.84-2.73-1.91-5.72-2.87-8.97-2.87h-10.62l-5.4,31h10.8c5.34,0,9.72-1.54,13.15-4.62,3.42-3.07,5.14-7.63,5.14-13.67Zm5.92-48.93c0-3.71-1.16-6.53-3.48-8.45-2.32-1.91-5.17-2.87-8.53-2.87h-9.23l-4.88,27.86h9.93c1.86,0,3.77-.32,5.75-.96,1.97-.64,3.71-1.62,5.22-2.96,1.51-1.33,2.76-3.05,3.74-5.14.99-2.09,1.48-4.58,1.48-7.49Z"/><path class="cls-1" d="m757.48,745.11l-7.84,44.58h-26.99l7.84-44.58-16.72-78.71h28.21l6.44,51.2h.52l24.38-51.2h29.08l-44.93,78.71Z"/></g></svg>